<svg width="180" height="45" viewBox="0 0 180 45" fill="none" xmlns="http://www.w3.org/2000/svg">
<g clip-path="url(#clip0_532_20404)">
<path d="M2.21997 5.78769C0.714174 7.59235 -0.109047 9.97499 0.11434 12.5073C0.366684 15.4098 1.93453 17.8797 4.17667 19.3767C8.64026 23.1398 12.1731 27.3978 9.12427 31.0487C7.5647 32.5415 6.67115 34.7038 6.87385 37.0241C7.05174 39.0699 8.04457 40.8413 9.50072 42.0555C10.9403 43.2863 12.8515 43.9641 14.8868 43.7811C17.1951 43.5774 19.1643 42.3174 20.3515 40.5169C23.4003 36.8619 27.4006 36.5708 30.9707 39.5814C32.4516 41.149 34.6069 42.0472 36.9152 41.8434C38.9298 41.6646 40.6838 40.6833 41.8876 39.2404C43.0914 37.7975 43.7492 35.893 43.5755 33.868C43.3727 31.5436 42.1193 29.5684 40.3281 28.375C36.758 25.3645 39.3683 20.6033 43.1825 16.0335C45.1309 14.1706 46.2478 11.4636 45.9955 8.56121C45.7721 6.00807 44.5311 3.7876 42.7109 2.27401C40.9114 0.735481 38.5203 -0.108633 35.9803 0.11591C33.0928 0.36956 30.6356 1.94552 29.1505 4.19926C25.3363 8.76912 20.3391 9.13088 15.8755 5.36771C14.0222 3.4092 11.3292 2.28649 8.4417 2.54014C5.92239 2.76052 3.73403 3.98719 2.22824 5.79185L2.21997 5.78769Z" fill="#A1CC56" stroke="#A1CC56" stroke-width="0.38" stroke-miterlimit="3.86"/>
<path d="M45.1104 6.90766C46.6493 8.74974 47.3815 11.0866 47.1746 13.4818C46.9347 16.2262 45.4868 18.6754 43.1992 20.2014H43.1909L43.1826 20.2139C39.4182 23.3907 34.8056 28.0853 38.2143 32.1645L38.2226 32.1729L38.2309 32.1812C39.8153 33.6948 40.6137 35.8154 40.4234 37.9985C40.2538 39.9237 39.3478 41.6619 37.8669 42.8968C36.4024 44.1526 34.5409 44.7472 32.6255 44.5809C30.4537 44.3896 28.5136 43.2295 27.3056 41.3999V41.3916L27.2932 41.3833C25.775 39.5661 23.9714 38.5183 22.0726 38.3519C20.1697 38.1856 18.2088 38.9008 16.4011 40.4269L16.3928 40.4352L16.3845 40.4435C14.8787 42.0319 12.769 42.8386 10.5971 42.6432C8.70249 42.4769 6.98159 41.5787 5.7571 40.1109C4.53261 38.643 3.94932 36.7885 4.11479 34.8798C4.30509 32.6968 5.45925 30.7466 7.27944 29.5324H7.28771L7.29598 29.5199C11.3459 26.1019 7.62279 20.6838 4.46642 16.904L4.45815 16.8956L4.44987 16.8873C2.46008 14.987 1.45897 12.3216 1.69477 9.57306C1.90575 7.15299 3.0475 4.96578 4.90906 3.41893C6.74993 1.84298 9.09135 1.09034 11.499 1.30241C14.2292 1.54359 16.6658 2.99895 18.184 5.29844V5.30675L18.1964 5.31507C20.0828 7.57713 22.3291 8.8828 24.6912 9.09071C27.0574 9.29862 29.494 8.40461 31.7444 6.50847L31.7527 6.50015L31.761 6.49184C33.6515 4.49175 36.3032 3.48546 39.0376 3.72248C41.4204 3.93039 43.5798 5.06142 45.1187 6.90766H45.1104ZM45.4082 6.65401C43.8032 4.73292 41.5486 3.55199 39.0624 3.33161C36.2121 3.08212 33.4446 4.13414 31.4714 6.22156L31.4879 6.20492C29.3203 8.03453 26.9788 8.89528 24.7201 8.69984C22.4656 8.50025 20.3103 7.24447 18.4901 5.06558L18.5025 5.08221C16.9182 2.68293 14.374 1.16519 11.5238 0.91154C9.01275 0.691156 6.56791 1.4729 4.64844 3.11538C2.70829 4.72876 1.51689 7.01161 1.29764 9.53564C1.04943 12.4006 2.09604 15.1825 4.17271 17.1659L4.15616 17.1493C9.00034 22.9541 9.91457 26.7838 7.03537 29.2164L7.05191 29.2039C5.13244 30.4846 3.91623 32.5388 3.71766 34.8424C3.54392 36.855 4.15616 38.8135 5.44684 40.3603C6.73752 41.9072 8.54943 42.8553 10.5516 43.0341C12.8434 43.2337 15.069 42.3895 16.6575 40.7096L16.641 40.7263C18.366 39.2709 20.2317 38.5848 22.0271 38.7428C23.8183 38.9008 25.5351 39.9029 26.983 41.6369L26.9706 41.6203C28.2447 43.5497 30.2883 44.7722 32.58 44.9718C34.5988 45.1506 36.5638 44.5185 38.1068 43.1962C39.6664 41.8989 40.6261 40.0651 40.804 38.0318C41.0025 35.7281 40.1628 33.491 38.4915 31.8943L38.5081 31.9109C36.088 29.0085 37.6517 25.3867 43.4308 20.5133L43.4143 20.5257C45.8012 18.9332 47.3112 16.3759 47.5635 13.5109C47.7827 11.0118 47.0174 8.57509 45.4124 6.64985L45.4082 6.65401Z" fill="#F39626"/>
<path d="M6.39886 6.36595C4.9634 7.80885 4.07812 9.80062 4.07812 12.0003C4.07812 14.5243 5.2447 16.7739 7.06489 18.2334C10.6308 21.8178 13.3611 25.7556 10.4529 28.6788C8.99677 29.8473 8.06185 31.6436 8.06185 33.6645C8.06185 35.4401 8.78579 37.0451 9.95237 38.2011C11.1024 39.3737 12.6992 40.0972 14.4656 40.0972C16.4719 40.0972 18.2632 39.1575 19.4256 37.6938C22.3296 34.7747 25.8004 34.8246 28.6548 37.6938C29.8172 39.1575 31.6043 40.0972 33.6148 40.0972C35.3647 40.0972 36.9491 39.3862 38.0991 38.2302C39.245 37.0784 39.9565 35.4858 39.9565 33.7227C39.9565 31.706 39.0216 29.9055 37.5654 28.737C34.7111 25.872 37.3214 21.9592 40.9535 18.3083C42.7737 16.8488 43.9402 14.5992 43.9402 12.0793C43.9402 9.85884 43.0384 7.85043 41.5781 6.40753C40.1427 4.94385 38.1446 4.0332 35.9355 4.0332C33.4245 4.0332 31.1906 5.20581 29.7386 7.03542C26.1065 10.6863 21.7712 10.6198 18.2053 7.03542C16.7532 5.20581 14.5152 4.0332 12.0042 4.0332C9.81585 4.0332 7.83433 4.92722 6.39886 6.36595Z" fill="#3061AD"/>
<path fill-rule="evenodd" clip-rule="evenodd" d="M12.8224 11.0898C12.8224 13.2646 11.5483 14.5453 10.8244 14.5453C10.2287 14.5453 10.1128 14.1128 10.1128 13.5639C10.1128 12.5161 10.8244 10.1251 12.0944 10.1251C12.6239 10.1251 12.8224 10.4578 12.8224 11.0898ZM13.3023 10.042C13.0706 9.69267 12.5577 9.24358 11.8337 9.24358C9.9846 9.24358 8.39607 11.1522 8.39607 12.9984C8.39607 14.3914 9.14069 15.406 10.51 15.406C11.4366 15.406 11.8958 14.8738 12.4419 14.0962C12.4915 14.7948 12.8555 15.5058 13.6332 15.5058C14.5268 15.5058 15.5982 14.7241 16.1939 14.0962C16.9882 13.2313 17.3357 12.0878 17.3357 10.9235C17.3357 8.44937 15.1887 6.1582 12.0985 6.1582C8.76011 6.1582 6.26562 8.83192 6.26562 12.2375C6.26562 15.643 8.95868 18.0673 12.2143 18.0673C14.3282 18.0673 16.2932 16.7866 17.2529 14.8946H16.1774C15.3169 16.1878 13.9476 17.0693 12.3922 17.0693C9.51714 17.0693 7.45288 15.194 7.45288 12.1211C7.45288 9.04815 9.36822 7.15617 12.1936 7.15617C15.0191 7.15617 16.3387 9.09805 16.3387 10.9609C16.3387 13.2022 14.9984 14.5494 14.2248 14.5494C13.8277 14.5494 13.8277 13.9507 13.9601 13.4683L15.0356 9.39744H13.4678L13.3023 10.0461V10.042Z" fill="white"/>
<path d="M35.9657 5.9707C39.3041 5.9707 42.0096 8.69016 42.0096 12.0458C42.0096 15.4015 39.3041 18.121 35.9657 18.121C32.6273 18.121 29.9219 15.4015 29.9219 12.0458C29.9219 8.69016 32.6273 5.9707 35.9657 5.9707Z" fill="#F39626" stroke="#F39626" stroke-width="0.24" stroke-miterlimit="3.86"/>
<path d="M21.4835 19.1356C21.2767 19.3436 21.1484 19.6263 21.1484 19.9423C21.1484 20.3041 21.318 20.6284 21.5787 20.8363C22.0916 21.352 22.0999 21.9757 21.5787 22.4996C21.318 22.7075 21.1484 23.0319 21.1484 23.3936C21.1484 23.7138 21.2767 24.0007 21.4877 24.2086C21.6945 24.4207 21.9799 24.5496 22.2985 24.5496C22.6584 24.5496 22.981 24.3833 23.1879 24.1172C23.7091 23.5932 24.3296 23.6015 24.8426 24.1172C25.0494 24.3791 25.3721 24.5496 25.732 24.5496C26.0464 24.5496 26.3318 24.4207 26.5345 24.217C26.7414 24.009 26.8696 23.7221 26.8696 23.4061C26.8696 23.0443 26.7 22.72 26.4394 22.5121C25.9264 21.9965 25.9182 21.3728 26.4394 20.8488C26.7 20.6409 26.8696 20.3166 26.8696 19.9548C26.8696 19.6346 26.7414 19.3477 26.5304 19.1398C26.3236 18.9277 26.0381 18.7988 25.7196 18.7988C25.3597 18.7988 25.037 18.9652 24.8302 19.2313C24.3089 19.7552 23.6843 19.7469 23.1755 19.2313C22.9686 18.9693 22.646 18.7988 22.2861 18.7988C21.9717 18.7988 21.6862 18.9277 21.4835 19.1356Z" fill="#231815" stroke="#231815" stroke-width="0.2" stroke-miterlimit="3.86"/>
<path d="M35.9525 10.2246C36.9536 10.2246 37.7645 11.0396 37.7645 12.0459C37.7645 13.0522 36.9536 13.8672 35.9525 13.8672C34.9514 13.8672 34.1406 13.0522 34.1406 12.0459C34.1406 11.0396 34.9514 10.2246 35.9525 10.2246Z" fill="#231815" stroke="#231815" stroke-width="0.07" stroke-miterlimit="3.86"/>
<path fill-rule="evenodd" clip-rule="evenodd" d="M55.8511 37.2665C56.0083 37.832 56.1158 38.4058 56.2317 39.0337C56.4757 39.0171 56.7157 38.9922 56.9597 38.9922C57.2038 38.9922 57.4355 39.0171 57.6795 39.0337L56.0496 33.1582C55.9379 33.1748 55.8345 33.1832 55.727 33.1832C55.6194 33.1832 55.516 33.1748 55.4084 33.1582L52.2852 39.0171C52.4217 39.0088 52.5582 38.9922 52.6906 38.9922C52.8229 38.9922 52.9512 39.0088 53.0836 39.0171C53.3152 38.435 53.5882 37.911 53.8861 37.2665H55.8469H55.8511ZM54.1798 36.7509L55.2099 34.7799L55.7187 36.7509H54.1798Z" fill="#231815"/>
<path fill-rule="evenodd" clip-rule="evenodd" d="M60.0925 35.474H60.8081C60.8081 35.2786 60.8247 35.1289 60.8743 34.9334H60.1586L60.3407 33.4531C59.9146 33.6486 59.5133 33.8232 59.1162 33.9771L59.0003 34.9334H58.4295C58.4295 35.1289 58.4129 35.2786 58.3633 35.474H58.9342L58.657 37.7402C58.5618 38.5261 58.6818 39.1083 59.5588 39.1083C59.8194 39.1083 60.1297 39.0334 60.4565 38.9128L60.4979 38.5843C59.7243 38.7798 59.7284 38.4638 59.8029 37.8816L60.0966 35.4699L60.0925 35.474Z" fill="#231815"/>
<path fill-rule="evenodd" clip-rule="evenodd" d="M61.3125 39.0323C61.5069 39.0156 61.7055 38.9907 61.8999 38.9907C62.0944 38.9907 62.2846 39.0156 62.4749 39.0323L62.7769 36.5623C62.8348 36.0966 63.0169 35.5643 63.596 35.5643C64.1752 35.5643 64.1338 36.1714 64.0676 36.7411L63.7863 39.0323C63.9807 39.0156 64.1793 38.9907 64.3737 38.9907C64.5682 38.9907 64.7584 39.0156 64.9487 39.0323L65.2631 36.4708C65.3293 35.9469 65.4741 35.5685 66.0739 35.5685C66.6365 35.5685 66.6117 36.1756 66.5455 36.7452L66.2642 39.0364C66.4587 39.0198 66.6572 38.9948 66.8517 38.9948C67.0461 38.9948 67.2364 39.0198 67.4267 39.0364L67.7576 36.3377C67.8693 35.4313 67.6004 34.8574 66.6241 34.8574C66.0698 34.8574 65.6023 35.1776 65.2507 35.6267C65.1349 35.1194 64.7543 34.8574 64.2248 34.8574C63.7367 34.8574 63.1947 35.161 62.901 35.5685L62.9796 34.9323C62.7852 34.9489 62.5866 34.9739 62.3922 34.9739C62.1978 34.9739 62.0075 34.9489 61.8172 34.9323L61.3166 39.0364L61.3125 39.0323Z" fill="#231815"/>
<path fill-rule="evenodd" clip-rule="evenodd" d="M70.5237 37.6354C70.4575 38.0595 70.2838 38.5543 69.7708 38.5543C69.4109 38.5543 69.353 38.1925 69.3902 37.8807C69.4233 37.6104 69.506 37.3568 69.746 37.1779C70.0149 36.9825 70.3996 36.9077 70.623 36.8162L70.5237 37.6354ZM71.8847 35.9845C71.9881 35.1404 71.1318 34.8535 70.4244 34.8535C69.8949 34.8535 69.2413 35.049 68.7986 35.419L68.8441 35.9263H68.9021C68.9724 35.7725 69.4523 35.4024 69.9942 35.4024C70.383 35.4024 70.7512 35.7392 70.7016 36.1467C70.685 36.2715 70.6478 36.3837 70.5361 36.4752C70.3375 36.5958 70.11 36.6457 69.8949 36.6956C68.8111 36.9492 68.294 37.1863 68.1988 37.9888C68.1078 38.7248 68.5753 39.1074 69.2661 39.1074C69.7046 39.1074 70.1514 38.8786 70.4203 38.4878C70.5113 38.8579 70.7802 39.1074 71.1773 39.1074C71.4131 39.1074 71.7482 38.9701 71.9633 38.8787L71.9881 38.6832C71.6489 38.6998 71.5703 38.6001 71.6075 38.284L71.8888 35.9845H71.8847Z" fill="#231815"/>
<path fill-rule="evenodd" clip-rule="evenodd" d="M72.6448 39.0325C72.8392 39.0159 73.0378 38.9909 73.2322 38.9909C73.4266 38.9909 73.6169 39.0159 73.8072 39.0325L73.9934 37.5023C74.0264 37.232 74.0595 36.7663 74.163 36.521C74.3077 36.155 74.6346 35.9638 75.0069 35.9638C75.1434 35.9638 75.3213 35.997 75.4205 36.0719L75.5033 36.0053C75.524 35.6436 75.5943 35.2527 75.6853 34.8535C74.8621 34.8535 74.4277 35.3608 74.1754 35.9762L74.3036 34.9284C74.1092 34.945 73.9106 34.9699 73.7162 34.9699C73.5218 34.9699 73.3315 34.945 73.1412 34.9284L72.6406 39.0325H72.6448Z" fill="#231815"/>
<path fill-rule="evenodd" clip-rule="evenodd" d="M75.8477 39.0321C76.0421 39.0155 76.2407 38.9905 76.4351 38.9905C76.6295 38.9905 76.8198 39.0155 77.0101 39.0321L77.25 37.0611C77.3534 37.1193 77.4031 37.2482 77.4527 37.3397C77.734 37.8553 78.0236 38.5165 78.2304 39.0321C78.4414 39.0155 78.6648 38.9905 78.8758 38.9905C79.0868 38.9905 79.3019 39.0155 79.5087 39.0321L79.517 38.9656C79.3101 38.4666 79.0868 38.0092 78.8634 37.5601L78.3215 36.479C78.822 35.9633 79.4136 35.5392 79.91 34.9903L79.9183 34.9321C79.7983 34.9487 79.6783 34.9737 79.5584 34.9737C79.4301 34.9737 79.3184 34.9487 79.2026 34.9321C78.5697 35.5766 77.9905 36.1837 77.3659 36.7492C77.3328 36.7576 77.3121 36.7659 77.2914 36.7409L77.7961 32.6035C77.6017 32.6201 77.4031 32.6451 77.2087 32.6451C77.0142 32.6451 76.8239 32.6201 76.6336 32.6035L75.8477 39.0321Z" fill="#231815"/>
<path fill-rule="evenodd" clip-rule="evenodd" d="M87.1485 38.0012C86.7266 38.3629 86.0854 38.6374 85.5642 38.6374C84.2693 38.6374 83.6861 37.6228 83.8639 36.1757C84.017 34.9324 84.7451 33.5893 86.1392 33.5893C86.6852 33.5893 87.1858 33.9095 87.4423 34.3669H87.5622C87.6656 34.0717 87.7525 33.7848 87.8601 33.4979C87.405 33.2276 86.7514 33.082 86.193 33.082C84.3604 33.082 82.7222 34.0883 82.4533 36.2963C82.2423 38.0303 83.4668 39.1447 85.2663 39.1447C85.8289 39.1447 86.4412 39.0449 86.9748 38.7829L87.2478 38.0552L87.1444 38.0053L87.1485 38.0012Z" fill="#231815"/>
<path fill-rule="evenodd" clip-rule="evenodd" d="M89.8278 39.1074C91.1475 39.1074 92.0203 38.1676 92.1775 36.8827C92.3306 35.6311 91.6273 34.8535 90.3573 34.8535C89.0873 34.8535 88.1979 35.7392 88.0325 37.0698C87.8794 38.3215 88.5827 39.1074 89.8278 39.1074ZM90.3615 35.2319C90.9241 35.2319 91.0523 35.9263 90.9489 36.7455C90.8372 37.6769 90.5228 38.7082 89.8733 38.7248C89.1411 38.7248 89.2156 37.5813 89.2818 37.0407C89.4017 36.0428 89.6789 35.2319 90.3615 35.2319Z" fill="#231815"/>
<path fill-rule="evenodd" clip-rule="evenodd" d="M92.7039 37.9594C92.6377 38.2297 92.5632 38.4917 92.4805 38.762C92.7949 38.999 93.1879 39.1113 93.6015 39.1113C94.6192 39.1113 95.2935 38.5457 95.3886 37.7557C95.5789 36.1839 93.5519 36.5955 93.6553 35.7764C93.6967 35.4313 94.0359 35.2857 94.3379 35.2857C94.7143 35.2857 95.0287 35.6308 95.0494 35.9968H95.2852C95.3721 35.7514 95.4714 35.5061 95.5789 35.2524C95.2728 34.9905 94.8302 34.8574 94.4082 34.8574C93.6429 34.8574 92.9024 35.3398 92.7949 36.2005C92.617 37.6725 94.5944 37.369 94.4992 38.1632C94.462 38.4584 94.0814 38.6788 93.7877 38.6788C93.3326 38.6788 93.0183 38.3836 92.9148 37.9594H92.7039Z" fill="#231815"/>
<path fill-rule="evenodd" clip-rule="evenodd" d="M95.9062 39.0323C96.1007 39.0156 96.2992 38.9907 96.4937 38.9907C96.6881 38.9907 96.8784 39.0156 97.0687 39.0323L97.3707 36.5623C97.4286 36.0966 97.6106 35.5643 98.1898 35.5643C98.7689 35.5643 98.7275 36.1714 98.6614 36.7411L98.3801 39.0323C98.5745 39.0156 98.773 38.9907 98.9675 38.9907C99.1619 38.9907 99.3522 39.0156 99.5425 39.0323L99.8569 36.4708C99.9189 35.9469 100.068 35.5685 100.668 35.5685C101.23 35.5685 101.205 36.1756 101.139 36.7452L100.858 39.0364C101.052 39.0198 101.251 38.9948 101.445 38.9948C101.64 38.9948 101.83 39.0198 102.02 39.0364L102.351 36.3377C102.463 35.4313 102.194 34.8574 101.218 34.8574C100.664 34.8574 100.196 35.1776 99.8445 35.6267C99.7286 35.1194 99.3481 34.8574 98.8186 34.8574C98.3304 34.8574 97.7885 35.161 97.4948 35.5685L97.5734 34.9323C97.3789 34.9489 97.1804 34.9739 96.986 34.9739C96.7915 34.9739 96.6012 34.9489 96.4109 34.9323L95.9104 39.0364L95.9062 39.0323Z" fill="#231815"/>
<path fill-rule="evenodd" clip-rule="evenodd" d="M104.781 39.1074C106.101 39.1074 106.973 38.1676 107.131 36.8827C107.284 35.6311 106.58 34.8535 105.31 34.8535C104.04 34.8535 103.151 35.7392 102.986 37.0698C102.833 38.3215 103.536 39.1074 104.781 39.1074ZM105.315 35.2319C105.877 35.2319 106.005 35.9263 105.902 36.7455C105.79 37.6769 105.476 38.7082 104.826 38.7248C104.094 38.7248 104.169 37.5813 104.235 37.0407C104.355 36.0428 104.632 35.2319 105.315 35.2319Z" fill="#231815"/>
<path fill-rule="evenodd" clip-rule="evenodd" d="M109.577 38.5585C108.87 38.5585 108.932 37.5605 108.998 37.0449C109.064 36.5126 109.283 35.4024 110.016 35.4024C110.57 35.4024 110.669 36.0428 110.553 36.9991C110.446 37.889 110.127 38.4961 109.581 38.5543L109.577 38.5585ZM107.356 41.1823C107.55 41.1657 107.749 41.1407 107.943 41.1407C108.138 41.1407 108.328 41.1657 108.518 41.1823L108.845 38.5003C109.006 38.8204 109.292 39.1074 109.854 39.1074C110.719 39.1074 111.621 38.4212 111.807 36.9077C111.939 35.8349 111.612 34.8535 110.4 34.8535C109.838 34.8535 109.403 35.1737 109.147 35.6727L109.238 34.9284C109.052 34.945 108.861 34.9699 108.675 34.9699C108.489 34.9699 108.299 34.945 108.117 34.9284L107.352 41.1781L107.356 41.1823Z" fill="#231815"/>
<path fill-rule="evenodd" clip-rule="evenodd" d="M114.133 39.1074C115.452 39.1074 116.325 38.1676 116.482 36.8827C116.635 35.6311 115.932 34.8535 114.662 34.8535C113.392 34.8535 112.503 35.7392 112.337 37.0698C112.184 38.3215 112.887 39.1074 114.133 39.1074ZM114.666 35.2319C115.229 35.2319 115.357 35.9263 115.254 36.7455C115.138 37.6769 114.828 38.7082 114.178 38.7248C113.446 38.7248 113.52 37.5813 113.586 37.0407C113.706 36.0428 113.984 35.2319 114.666 35.2319Z" fill="#231815"/>
<path fill-rule="evenodd" clip-rule="evenodd" d="M119.034 32.6035C118.84 32.6201 118.641 32.6451 118.447 32.6451C118.253 32.6451 118.062 32.6201 117.872 32.6035L117.086 39.0321C117.28 39.0155 117.479 38.9905 117.673 38.9905C117.868 38.9905 118.058 39.0155 118.248 39.0321L119.034 32.6035Z" fill="#231815"/>
<path fill-rule="evenodd" clip-rule="evenodd" d="M119.426 39.0334C119.62 39.0167 119.819 38.9918 120.013 38.9918C120.208 38.9918 120.398 39.0167 120.588 39.0334L121.089 34.9292C120.894 34.9458 120.696 34.9708 120.501 34.9708C120.307 34.9708 120.117 34.9458 119.926 34.9292L119.426 39.0334ZM120.03 33.3824C119.988 33.7358 120.241 34.0518 120.605 34.0518C120.969 34.0518 121.316 33.7483 121.358 33.3824C121.403 33.0206 121.13 32.7129 120.766 32.7129C120.402 32.7129 120.071 33.0248 120.03 33.3824Z" fill="#231815"/>
<path fill-rule="evenodd" clip-rule="evenodd" d="M123.479 35.474H124.195C124.195 35.2786 124.211 35.1289 124.261 34.9334H123.545L123.727 33.4531C123.301 33.6486 122.9 33.8232 122.503 33.9771L122.387 34.9334H121.816C121.816 35.1289 121.8 35.2786 121.75 35.474H122.321L122.044 37.7402C121.949 38.5261 122.069 39.1083 122.946 39.1083C123.206 39.1083 123.516 39.0334 123.843 38.9128L123.885 38.5843C123.111 38.7798 123.115 38.4638 123.19 37.8816L123.483 35.4699L123.479 35.474Z" fill="#231815"/>
<path fill-rule="evenodd" clip-rule="evenodd" d="M126.625 37.6354C126.555 38.0595 126.385 38.5543 125.872 38.5543C125.512 38.5543 125.455 38.1925 125.492 37.8807C125.525 37.6104 125.608 37.3568 125.848 37.1779C126.116 36.9825 126.501 36.9077 126.725 36.8162L126.625 37.6354ZM127.986 35.9845C128.09 35.1404 127.233 34.8535 126.526 34.8535C125.996 34.8535 125.343 35.049 124.9 35.419L124.946 35.9263H125.004C125.074 35.7725 125.554 35.4024 126.096 35.4024C126.48 35.4024 126.853 35.7392 126.803 36.1467C126.787 36.2715 126.749 36.3837 126.638 36.4752C126.439 36.5958 126.212 36.6457 125.996 36.6956C124.913 36.9492 124.396 37.1863 124.3 37.9888C124.209 38.7248 124.677 39.1074 125.368 39.1074C125.806 39.1074 126.253 38.8786 126.522 38.4878C126.613 38.8579 126.886 39.1074 127.279 39.1074C127.515 39.1074 127.85 38.9701 128.065 38.8787L128.09 38.6832C127.75 38.6998 127.672 38.6001 127.709 38.284L127.99 35.9845H127.986Z" fill="#231815"/>
<path fill-rule="evenodd" clip-rule="evenodd" d="M128.645 39.0328C128.839 39.0161 129.038 38.9912 129.232 38.9912C129.426 38.9912 129.617 39.0161 129.807 39.0328L130.043 37.0867C130.109 36.5545 130.229 35.5648 130.961 35.5648C131.549 35.5648 131.582 36.1387 131.487 36.9246L131.23 39.0286C131.424 39.012 131.623 38.987 131.817 38.987C132.012 38.987 132.202 39.012 132.392 39.0286L132.694 36.5503C132.819 35.5357 132.632 34.8496 131.573 34.8496C131.052 34.8496 130.576 35.1532 130.192 35.5523L130.266 34.9245C130.08 34.9411 129.89 34.966 129.708 34.966C129.526 34.966 129.331 34.9411 129.149 34.9245L128.649 39.0286L128.645 39.0328Z" fill="#231815"/>
<path fill-rule="evenodd" clip-rule="evenodd" d="M135.516 39.0331C135.727 39.0165 135.942 38.9915 136.153 38.9915C136.364 38.9915 136.571 39.0165 136.777 39.0331L137.125 36.2014C137.555 36.1847 137.989 36.1598 138.416 36.1598C138.842 36.1598 139.272 36.1847 139.698 36.2014L139.35 39.0331C139.561 39.0165 139.777 38.9915 139.987 38.9915C140.198 38.9915 140.405 39.0165 140.612 39.0331L141.32 33.2324C141.109 33.2491 140.893 33.274 140.682 33.274C140.471 33.274 140.265 33.2491 140.058 33.2324L139.777 35.5236C139.346 35.5402 138.912 35.5652 138.486 35.5652C138.06 35.5652 137.63 35.5402 137.203 35.5236L137.485 33.2324C137.274 33.2491 137.059 33.274 136.848 33.274C136.637 33.274 136.43 33.2491 136.223 33.2324L135.516 39.0331Z" fill="#231815"/>
<path fill-rule="evenodd" clip-rule="evenodd" d="M141.93 39.0334C142.124 39.0167 142.323 38.9918 142.517 38.9918C142.712 38.9918 142.902 39.0167 143.092 39.0334L143.593 34.9292C143.398 34.9458 143.2 34.9708 143.005 34.9708C142.811 34.9708 142.621 34.9458 142.43 34.9292L141.93 39.0334ZM142.534 33.3824C142.492 33.7358 142.745 34.0518 143.109 34.0518C143.473 34.0518 143.82 33.7483 143.862 33.3824C143.907 33.0206 143.634 32.7129 143.27 32.7129C142.906 32.7129 142.575 33.0248 142.534 33.3824Z" fill="#231815"/>
<path fill-rule="evenodd" clip-rule="evenodd" d="M144.643 39.6146C144.808 39.1572 145.185 39.1157 145.578 39.1157C146.211 39.1157 146.819 39.1323 146.724 39.9348C146.666 40.4089 146.198 40.8746 145.574 40.8746C144.995 40.8746 144.482 40.5794 144.56 39.9265C144.573 39.8267 144.585 39.7144 144.639 39.6146H144.643ZM148.234 34.8785H147.216C146.931 34.8618 146.645 34.8535 146.36 34.8535C145.251 34.8535 144.432 35.1986 144.316 36.1467C144.225 36.891 144.515 37.3318 145.218 37.4981L145.09 37.5314C144.796 37.6062 144.378 37.9971 144.329 38.3755C144.296 38.6541 144.407 38.9078 144.664 39.0034L144.713 39.0699L144.577 39.1448C144.147 39.2986 143.824 39.6438 143.77 40.0928C143.663 40.9744 144.61 41.2197 145.305 41.2197C146.414 41.2197 147.584 40.6625 147.737 39.4192C147.816 38.783 147.564 38.363 146.641 38.3298L145.921 38.3048C145.545 38.2882 145.251 38.1967 145.292 37.8557C145.301 37.7809 145.363 37.6977 145.421 37.6353C145.508 37.5522 145.698 37.5771 145.797 37.5771C146.807 37.5771 147.626 37.1447 147.741 36.1883C147.791 35.7891 147.675 35.4939 147.41 35.2402L148.163 35.2652L148.217 34.8743L148.234 34.8785ZM145.479 36.2923C145.528 35.8931 145.648 35.1654 146.186 35.1654C146.633 35.1654 146.625 35.7933 146.583 36.1301C146.538 36.5126 146.422 37.257 145.901 37.257C145.446 37.257 145.437 36.6415 145.479 36.2923Z" fill="#231815"/>
<path fill-rule="evenodd" clip-rule="evenodd" d="M150.292 32.6038C150.098 32.6204 149.899 32.6453 149.709 32.6453C149.518 32.6453 149.324 32.6204 149.134 32.6038L148.348 39.0323C148.542 39.0157 148.741 38.9908 148.935 38.9908C149.13 38.9908 149.32 39.0157 149.51 39.0323L149.746 37.0863C149.812 36.5457 149.891 35.5644 150.664 35.5644C151.252 35.5644 151.285 36.1382 151.19 36.9241L150.933 39.0282C151.128 39.0115 151.326 38.9866 151.521 38.9866C151.715 38.9866 151.905 39.0115 152.096 39.0282L152.427 36.3129C152.476 35.8971 152.48 35.5436 152.203 35.2401C151.959 34.9698 151.653 34.8492 151.268 34.8492C150.813 34.8492 150.275 35.1777 149.94 35.5103L150.296 32.5996L150.292 32.6038Z" fill="#231815"/>
<path fill-rule="evenodd" clip-rule="evenodd" d="M158.872 34.3214C158.992 34.0345 159.108 33.7559 159.244 33.4856C159.083 33.3068 158.57 33.0781 157.966 33.0781C156.688 33.0781 155.927 33.8807 155.807 34.8537C155.558 36.8912 158.123 36.4005 157.958 37.7519C157.887 38.3341 157.387 38.6335 156.866 38.6335C156.286 38.6335 155.873 38.2883 155.819 37.702H155.658C155.563 38.0638 155.426 38.4214 155.281 38.7749C155.645 39.0285 156.129 39.1366 156.593 39.1366C157.896 39.1366 158.917 38.359 159.05 37.2779C159.286 35.3402 156.704 35.5523 156.841 34.4129C156.899 33.9306 157.205 33.5854 157.867 33.5854C158.347 33.5854 158.632 33.8723 158.744 34.3214H158.868H158.872Z" fill="#231815"/>
<path fill-rule="evenodd" clip-rule="evenodd" d="M163.612 35.2358C163.248 34.9738 162.689 34.8574 162.213 34.8574C160.894 34.8574 159.897 35.7099 159.731 37.0571C159.57 38.3836 160.381 39.1113 161.684 39.1113C161.986 39.1113 162.598 38.999 162.859 38.7911L163.123 38.2838L162.995 38.1632C162.764 38.4085 162.383 38.5624 162.073 38.5624C161.154 38.5624 160.873 37.9137 160.997 36.8949C161.076 36.2712 161.444 35.2358 162.234 35.2358C162.73 35.2358 162.983 35.6516 162.987 36.1174H163.19L163.616 35.2358H163.612Z" fill="#231815"/>
<path fill-rule="evenodd" clip-rule="evenodd" d="M165.624 32.6038C165.43 32.6204 165.231 32.6453 165.037 32.6453C164.842 32.6453 164.652 32.6204 164.462 32.6038L163.676 39.0323C163.87 39.0157 164.069 38.9908 164.263 38.9908C164.458 38.9908 164.648 39.0157 164.838 39.0323L165.074 37.0863C165.14 36.5457 165.219 35.5644 165.992 35.5644C166.58 35.5644 166.613 36.1382 166.518 36.9241L166.261 39.0282C166.456 39.0115 166.654 38.9866 166.849 38.9866C167.043 38.9866 167.233 39.0115 167.424 39.0282L167.755 36.3129C167.804 35.8971 167.808 35.5436 167.531 35.2401C167.287 34.9698 166.981 34.8492 166.596 34.8492C166.141 34.8492 165.604 35.1777 165.268 35.5103L165.624 32.5996V32.6038Z" fill="#231815"/>
<path fill-rule="evenodd" clip-rule="evenodd" d="M170.203 39.1074C171.522 39.1074 172.395 38.1676 172.553 36.8827C172.706 35.6311 172.002 34.8535 170.732 34.8535C169.462 34.8535 168.573 35.7392 168.407 37.0698C168.254 38.3215 168.958 39.1074 170.203 39.1074ZM170.736 35.2319C171.299 35.2319 171.427 35.9263 171.324 36.7455C171.208 37.6769 170.898 38.7082 170.248 38.7248C169.516 38.7248 169.591 37.5813 169.657 37.0407C169.777 36.0428 170.054 35.2319 170.736 35.2319Z" fill="#231815"/>
<path fill-rule="evenodd" clip-rule="evenodd" d="M174.883 39.1074C176.202 39.1074 177.075 38.1676 177.232 36.8827C177.385 35.6311 176.682 34.8535 175.412 34.8535C174.142 34.8535 173.253 35.7392 173.087 37.0698C172.934 38.3215 173.637 39.1074 174.883 39.1074ZM175.416 35.2319C175.979 35.2319 176.107 35.9263 176.004 36.7455C175.888 37.6769 175.577 38.7082 174.928 38.7248C174.196 38.7248 174.266 37.5813 174.332 37.0407C174.452 36.0428 174.729 35.2319 175.412 35.2319H175.416Z" fill="#231815"/>
<path fill-rule="evenodd" clip-rule="evenodd" d="M179.78 32.6035C179.586 32.6201 179.387 32.6451 179.193 32.6451C178.999 32.6451 178.808 32.6201 178.618 32.6035L177.832 39.0321C178.026 39.0155 178.225 38.9905 178.419 38.9905C178.614 38.9905 178.804 39.0155 178.994 39.0321L179.78 32.6035Z" fill="#231815"/>
<path d="M77.0047 24.239C75.6396 24.239 73.5795 23.8481 72.7976 22.4593C72.3715 25.9563 72.0406 28.6716 72.0406 28.6716H69.9805L71.3911 17.1035H73.4554C72.9755 21.0496 74.4275 22.6422 77.2033 22.6422L77.0089 24.2431L77.0047 24.239Z" fill="#231815"/>
<path d="M96.9841 17.1018H104.029L103.338 22.7486C102.742 27.6387 99.4207 28.7905 97.3854 28.7905L97.5963 27.0565C99.9253 27.0565 100.848 25.3018 101.125 23.0189L101.663 18.6237H98.5685C98.3534 20.3577 97.9273 21.5927 97.1992 22.6987H94.8164C96.5125 20.9897 96.9841 17.0977 96.9841 17.0977V17.1018Z" fill="#231815"/>
<path d="M124.037 20.0805C124.153 19.9349 124.268 19.7852 124.376 19.6272C124.194 19.4152 123.863 19.0118 123.495 18.7124C123.383 18.8704 123.305 18.9785 123.193 19.1199C123.342 19.253 123.768 19.7062 124.033 20.0805H124.037ZM124.885 18.7498C125.021 18.4629 125.133 18.1594 125.22 17.8434H124.053C124.004 17.9348 123.95 18.0222 123.896 18.1095C124.194 18.255 124.599 18.5211 124.885 18.7498ZM128.55 17.8434H127.098C127.135 18.3465 127.446 19.2405 127.557 19.5815C127.88 19.1282 128.368 18.3798 128.55 17.8434ZM128.049 22.2011H122.932C122.498 22.4964 122.022 22.7708 121.588 23.0203L121.344 22.3841C121.679 22.1679 122.564 21.6148 123.42 20.7624C123.296 20.4797 123.073 19.964 122.792 19.6064C122.345 20.1179 121.964 20.4672 121.774 20.621L121.911 19.515C122.527 18.6708 122.986 17.781 123.18 17.1406H129.853C129.853 17.1406 130.056 17.1988 130.031 17.4067C130.014 17.5606 128.062 20.2426 127.93 20.3549C128.236 20.987 128.662 21.5525 129.311 22.1263L129.249 22.6378L129.216 22.9039C128.844 22.6669 128.409 22.4631 128.049 22.2053V22.2011ZM123.784 21.5442H127.433C126.825 20.7624 126.287 19.7894 126.085 18.991C125.518 19.9724 124.62 20.8456 123.784 21.5442Z" fill="#231815"/>
<path fill-rule="evenodd" clip-rule="evenodd" d="M106.224 17.1113L104.801 28.5214H115.569L116.992 17.1113H106.224ZM113.964 27.8686H106.571L107.829 17.8182H115.221L113.964 27.8686ZM108.329 19.0989L108.243 19.8058H110.402L110.092 22.334H108.334L108.247 23.0409H110.005L109.645 25.9932H107.237L107.15 26.7001H113.778L113.864 25.9932H111.366L111.726 23.0409H113.62L113.707 22.334H111.813L112.123 19.8058H114.406L114.493 19.0989H108.334H108.329Z" fill="#231815"/>
<path fill-rule="evenodd" clip-rule="evenodd" d="M132.631 19.456H140.222L139.912 21.9925H132.321L132.631 19.456ZM138.418 20.1629H134.253L134.108 21.3356H138.274L138.418 20.1629ZM133.235 24.2754H138.394L138.042 27.1529H132.883L133.235 24.2754ZM136.677 24.9698H134.77L134.588 26.4585H136.495L136.677 24.9698ZM137.438 18.113H142.431L142.344 18.8198H130.662L130.749 18.113H135.667L135.787 17.1191H137.558L137.438 18.113ZM139.188 28.5583H137.281L137.368 27.839C137.649 27.8681 137.967 27.839 138.319 27.839C138.82 27.839 138.977 27.681 139.039 27.1778L139.494 23.4438H132.341L131.721 28.5251H130L130.707 22.7369H141.31L140.776 27.1154C140.661 28.0635 140.375 28.5583 139.184 28.5583H139.188Z" fill="#231815"/>
<path fill-rule="evenodd" clip-rule="evenodd" d="M164.115 19.2684C164.115 19.2684 164.81 18.915 164.214 19.2684H167.114L166.816 21.7134H165.095L165.306 19.9712H157.587L157.372 21.7384H155.68L155.982 19.2643H164.115V19.2684Z" fill="#231815"/>
<path fill-rule="evenodd" clip-rule="evenodd" d="M172.567 24.0345L172.464 24.8869C171.963 24.5875 171.45 23.6187 171.098 22.9242L170.416 28.5253H168.761L169.299 24.1343C168.476 25.4982 167.16 26.1427 167.16 26.1427L167.297 25.0241C167.297 25.0241 169.361 23.1114 169.754 19.9095H168.186L168.273 19.2026H169.903L170.072 17.8263C170.093 17.6641 170.126 17.398 170.147 17.1152H171.818L171.562 19.2026H172.654L172.567 19.9095H171.487C171.512 20.9449 171.628 22.6706 172.575 24.0345H172.567Z" fill="#231815"/>
<path d="M122.442 17.1367C122.442 17.1367 122.661 17.1617 122.632 17.4278C122.612 17.59 120.663 21.6151 120.663 21.6151C121.449 22.6754 121.627 24.2888 121.52 25.1704C121.362 26.4552 120.721 26.659 119.869 26.659H119.265L119.36 25.8897C119.418 25.898 119.484 25.8897 119.551 25.8897C120.026 25.8897 120.126 25.6111 120.188 25.0955C120.386 23.4697 119.89 22.3095 119.637 21.7773L121.036 17.8436H120.018L118.715 28.526H117.172L118.562 17.1367H122.446H122.442Z" fill="#231815"/>
<path d="M159.818 28.5635H157.638L157.725 27.8691H158.892C159.467 27.8691 159.603 27.8067 159.674 27.2246L159.934 25.0831H155.016L155.102 24.3762H160.021L160.178 23.1038H161.444C161.655 22.9292 162.259 22.3844 162.602 21.9561H157.585L157.671 21.2617H164.282C164.555 21.4031 164.716 21.532 164.663 21.952C164.634 22.1807 164.497 22.3844 164.307 22.5092C163.562 22.9749 163.078 23.2452 161.858 23.8606L161.796 24.3762H166.789L166.702 25.0831H161.709L161.444 27.237C161.316 28.2849 160.857 28.5635 159.827 28.5635H159.818Z" fill="#231815"/>
<path fill-rule="evenodd" clip-rule="evenodd" d="M123.941 24.6133C123.738 26.2807 122.654 27.445 122.654 27.445H121.148C121.148 27.445 121.992 26.4221 122.212 24.6133H123.937H123.941Z" fill="#231815"/>
<path fill-rule="evenodd" clip-rule="evenodd" d="M126.287 23.9588L125.89 27.2147C125.774 28.1628 125.617 28.5287 124.351 28.5287H122.672L122.75 27.8468C122.75 27.8468 123.338 27.8468 123.594 27.8468C124.107 27.8468 124.124 27.722 124.177 27.2896L124.583 23.9588H121.766L121.852 23.252H129.199L129.113 23.9588H126.287Z" fill="#231815"/>
<path fill-rule="evenodd" clip-rule="evenodd" d="M128.672 27.4392C128.874 25.7717 128.08 24.6074 128.08 24.6074H126.574C126.574 24.6074 127.166 25.6303 126.942 27.4392H128.667H128.672Z" fill="#231815"/>
<path fill-rule="evenodd" clip-rule="evenodd" d="M146.937 27.8591C147.14 26.1916 146.346 25.0273 146.346 25.0273H144.84C144.84 25.0273 145.431 26.0503 145.212 27.8591H146.937Z" fill="#231815"/>
<path fill-rule="evenodd" clip-rule="evenodd" d="M113.556 25.6563H112.067C112.191 24.6417 112.059 23.8766 111.918 23.3984H113.192C113.395 23.8974 113.672 24.6916 113.552 25.6563H113.556Z" fill="#231815"/>
<path fill-rule="evenodd" clip-rule="evenodd" d="M86.9063 21.4648C86.9063 21.4648 93.2149 21.4773 94.096 21.4648L93.9554 22.625C93.3183 22.6125 86.7656 22.625 86.7656 22.625L86.9063 21.4648Z" fill="#231815"/>
<path d="M149.59 21.2482L149.437 22.5082H154.455L154.368 23.2151H142.685L142.772 22.5082H147.728L147.881 21.2482H144.03L144.117 20.5413H147.968C148.005 20.2503 148.072 19.6972 148.072 19.6972H149.78L149.677 20.5413H153.491L153.404 21.2482H149.59ZM151.687 23.1735L151.526 24.5166H154.211L154.124 25.2235H151.439L151.211 27.078C151.079 28.1758 150.69 28.5583 149.61 28.5583H147.344L147.422 27.9013H148.787C149.288 27.9013 149.42 27.6685 149.486 27.1154L149.718 25.2235H142.441L142.528 24.5166H149.805L149.966 23.1735C149.966 23.1735 151.716 23.1735 151.691 23.1735C151.724 23.1735 151.683 23.1735 151.683 23.1735H151.687ZM147.575 18.562L147.406 19.955H146.102L146.272 18.562H145.424C144.936 19.4228 144.282 19.9509 144.282 19.9509H143.074C143.074 19.9509 144.092 18.928 144.315 17.1191H145.925C145.891 17.3769 145.834 17.6223 145.751 17.8551H149.176L149.089 18.562H147.583H147.575Z" fill="#231815"/>
<path d="M153.428 18.562L153.258 19.955H151.955L152.125 18.562H151.277C151.049 18.9654 150.78 19.2939 150.565 19.5309H149.258C149.576 19.0735 150.027 18.2502 150.164 17.1191H151.773C151.74 17.3769 151.682 17.6223 151.599 17.8551H155.024L154.938 18.562H153.432H153.428Z" fill="#231815"/>
<path fill-rule="evenodd" clip-rule="evenodd" d="M165.659 17.1191C165.457 18.7866 164.377 19.9509 164.377 19.9509H162.871C162.871 19.9509 163.711 18.928 163.934 17.1191H165.659Z" fill="#231815"/>
<path fill-rule="evenodd" clip-rule="evenodd" d="M159.722 19.9509C159.925 18.2834 159.131 17.1191 159.131 17.1191H157.625C157.625 17.1191 158.217 18.1421 157.997 19.9509H159.722Z" fill="#231815"/>
<path fill-rule="evenodd" clip-rule="evenodd" d="M162.445 19.9509C162.648 18.2834 161.853 17.1191 161.853 17.1191H160.348C160.348 17.1191 160.939 18.1421 160.72 19.9509H162.445Z" fill="#231815"/>
<path d="M175.483 24.6665C176.331 23.602 177.042 22.2963 177.257 20.8119C176.794 20.0551 176.624 19.4022 176.587 19.2442H175.689C175.578 19.4646 175.28 20.0384 174.655 20.7495C174.486 22.2589 174.887 23.5854 175.478 24.6665H175.483ZM171.801 28.5503L171.908 27.6687C172.277 27.5315 173.356 26.8662 174.457 25.7934C173.58 24.7746 172.909 23.5688 172.847 22.3421C172.657 22.4751 172.45 22.6082 172.235 22.7413L172.372 21.6601C172.372 21.6601 173.906 20.6788 174.08 19.2401H172.814L172.901 18.5332H175.35L175.466 17.5976C175.474 17.5144 175.507 17.3439 175.524 17.1152H177.232L177.059 18.5332H180.008L179.921 19.2401H178.32C178.32 21.157 179.553 21.6601 179.553 21.6601L179.421 22.7413C179.239 22.629 178.833 22.5126 178.676 22.392C178.304 23.602 177.348 24.7871 176.24 25.7934C177.079 26.862 177.998 27.5315 178.333 27.6687L178.225 28.5503C177.501 28.3424 176.322 27.623 175.255 26.6167C173.94 27.623 172.587 28.3424 171.809 28.5503H171.801Z" fill="#231815"/>
<path fill-rule="evenodd" clip-rule="evenodd" d="M62.9023 24.8118L63.254 21.9219H64.3171L63.9655 24.8118H62.9023Z" fill="#231815"/>
<path d="M68.3795 21.9221L68.1231 24.0137C67.7011 27.4816 65.3431 28.2093 63.9035 28.2093H62.4102L62.5591 26.9785H64.0525C65.703 26.9785 66.3567 25.8225 66.5552 24.205L66.8324 21.918H68.3754L68.3795 21.9221Z" fill="#231815"/>
<path fill-rule="evenodd" clip-rule="evenodd" d="M64.5781 24.8118L64.9298 21.9219H65.9929L65.6413 24.8118H64.5781Z" fill="#231815"/>
<path d="M62.7544 17.1035L62.6096 18.2844L62.5931 18.4341L62.4359 19.7232C62.2621 21.1328 61.9353 21.6193 61.4017 22.4468C60.4792 23.9437 59.1513 24.6049 57.9805 24.8461C56.8553 27.9522 54.2657 28.7964 52.582 28.7964L52.7889 27.0873C55.0807 27.0873 55.9907 25.3575 56.2638 23.108L56.603 20.322H58.75L58.4439 22.8418L58.4356 22.9167C59.598 22.3345 60.1317 21.0372 60.3344 19.3988L60.4502 18.4425H53.0247L53.186 17.1077H62.7544V17.1035Z" fill="#231815"/>
<path d="M81.7229 23.3641C82.1821 22.9815 83.8161 21.3972 85.1936 18.4324H78.0039L78.1652 17.0977H88.3293C88.3293 17.0977 85.6032 23.1603 82.7074 25.0232C82.7695 25.1396 84.5773 28.2541 84.8172 28.6658H82.4634C82.1572 28.1044 79.0464 22.6364 79.0464 22.6364H81.3133L81.7229 23.3641Z" fill="#231815"/>
<path fill-rule="evenodd" clip-rule="evenodd" d="M81.063 7.89286H84.0167L84.0746 7.42299H81.7166C82.1344 7.23171 82.5481 7.03628 82.8336 6.83252C82.9039 6.79926 83.0197 6.74936 83.0694 6.67451L83.0818 6.64956L81.8076 6.17969C81.6877 6.40007 81.4932 6.69946 81.3774 6.845C81.3567 6.86995 81.0548 7.21508 80.9968 7.28161L81.2409 7.42299H79.5283L80.2191 6.96974C79.7889 6.59135 79.0856 6.32107 78.8126 6.22959L78.4031 6.50818C78.5189 6.64125 78.7381 6.86163 78.9946 7.42299H77.0048L76.9469 7.89286H79.8923L79.7889 8.74114H77.4723L77.4144 9.21101H79.731L79.6276 10.0676H76.3223L76.2643 10.5292H84.0663L84.1242 10.0676H80.8024L80.9058 9.21101H83.2555L83.3134 8.74114H80.9637L81.0672 7.89286H81.063ZM83.7974 13.6686C82.6309 13.494 81.5015 13.0033 80.9265 11.893H83.6857L83.7437 11.4232H80.5004C80.6038 11.2028 80.6452 11.0531 80.6783 10.9117C80.7321 10.8036 80.7486 10.7537 80.7528 10.7288C80.7528 10.7204 80.7486 10.7121 80.7197 10.6456H79.4828C79.4621 10.8992 79.4414 11.0489 79.3049 11.4273H76.3512L76.2933 11.8972H79.0691C78.5727 12.6706 77.4764 13.3858 75.7266 13.6644L75.9127 14.126C77.0669 13.9929 78.039 13.7143 78.7092 13.3526C79.3711 12.9991 79.6979 12.6374 79.913 12.3837C80.6411 13.5605 82.1469 14.022 83.5285 14.1302L83.7933 13.6686H83.7974Z" fill="black"/>
<path fill-rule="evenodd" clip-rule="evenodd" d="M85.8314 6.34476C85.8232 6.54851 85.8107 6.72315 85.7859 6.93522L85.4467 9.71706C85.3061 10.8522 85.0992 12.5654 84.0898 13.6923L84.4373 14.0042C86.1913 12.4989 86.4064 11.0934 86.5967 9.5133L86.9484 6.63999C86.969 6.59841 86.9856 6.55683 86.9939 6.48198C86.9939 6.45703 87.0104 6.36555 86.9566 6.36555L85.8314 6.34892V6.34476ZM88.3756 6.66494C88.3673 6.85622 88.359 7.01839 88.3301 7.24293L87.6185 13.0769H88.781L89.5297 6.93106C89.5587 6.8978 89.5794 6.86453 89.5876 6.798C89.5876 6.78137 89.6042 6.68157 89.5504 6.68157L88.3714 6.66494H88.3756ZM91.201 6.32812C91.201 6.41961 91.1638 6.8978 91.1596 6.94354L90.2909 14.0541H91.4451L92.3551 6.58177C92.3758 6.54019 92.3924 6.49029 92.3965 6.45703C92.3965 6.42376 92.3965 6.34892 92.3593 6.34892L91.201 6.33228V6.32812Z" fill="black"/>
<path fill-rule="evenodd" clip-rule="evenodd" d="M99.8572 10.7826L99.9317 10.1672C99.9565 10.109 99.9813 10.0258 99.9813 10.0175C99.9855 9.96762 99.9565 9.94267 99.94 9.93435L98.7775 9.91772C98.7982 10.0924 98.7693 10.3211 98.7444 10.5248L98.7113 10.7868H96.1589L96.101 11.2567H98.6534L98.4135 13.2152C98.3721 13.5603 98.3597 13.6518 98.0164 13.6518C97.5572 13.6518 97.3545 13.6102 97.1642 13.5769L97.2676 14.0967H98.5045C99.1002 14.0967 99.4477 14.0302 99.5428 13.2734L99.7869 11.2567H100.647L100.705 10.7868H99.8448L99.8572 10.7826ZM94.3925 8.08395C94.496 7.71387 94.5621 7.43528 94.6532 7.09846C94.7152 7.0153 94.7235 7.00698 94.7276 6.98203C94.7318 6.93213 94.6987 6.88223 94.6821 6.88223L93.7389 6.73254C93.7389 6.8656 93.7389 7.06104 93.7141 7.26895C93.6686 7.65566 93.4121 9.13598 92.8909 10.0508L93.2756 10.2545C93.9209 9.49774 94.0906 8.9946 94.2436 8.54967H94.769L94.4918 10.8117C93.9251 11.0113 93.3377 11.2068 92.7461 11.3398L92.9902 12.2214C92.9902 12.2214 93.0357 12.2463 93.0564 12.2463C93.1225 12.2463 93.1598 12.1631 93.1722 12.1299C93.3501 12.0467 94.2105 11.6267 94.4091 11.5311L94.0906 14.1466H95.1785L95.5674 10.9697C95.8776 10.82 96.0597 10.7161 96.2582 10.5997L96.2375 10.1381C95.919 10.2712 95.7908 10.3211 95.6377 10.3834L95.8611 8.54967H96.4651L96.523 8.08811H95.919L96.1052 6.54958C96.1259 6.508 96.1507 6.44978 96.1548 6.4082C96.1631 6.34999 96.1341 6.3084 96.101 6.30009L95.0172 6.28345C95.0089 6.43315 94.9882 6.79491 94.98 6.86144L94.831 8.08811H94.3967L94.3925 8.08395ZM99.456 7.50181L99.5759 6.5371C99.609 6.47057 99.6214 6.43731 99.6256 6.38741C99.6297 6.34583 99.6339 6.33751 99.5801 6.29593L98.4259 6.2793C98.4259 6.47057 98.4094 6.68264 98.3887 6.87392L98.3101 7.50596H96.9201L96.8622 7.97584H98.2522L98.0991 9.21914H96.3699L96.312 9.68902H100.854L100.912 9.21914H99.2491L99.4022 7.97584H100.858L100.916 7.50596H99.4601L99.456 7.50181ZM96.2582 11.6475C96.4775 12.1257 96.585 12.5374 96.676 13.2859L97.7888 12.579C97.4744 12.1424 97.0856 11.6891 96.7091 11.3523L96.2541 11.6475H96.2582Z" fill="black"/>
<path fill-rule="evenodd" clip-rule="evenodd" d="M108.317 11.7925C108.111 11.4973 107.672 10.8528 106.795 9.94211C107.469 9.20195 107.887 8.59901 108.173 8.16656C108.255 8.10002 108.284 8.06676 108.289 8.04181C108.289 8.00854 108.247 7.97528 108.247 7.97528L107.159 7.44719C107.043 7.72579 106.692 8.48258 106.088 9.3059C105.715 8.99404 105.091 8.49921 103.87 7.79232L103.494 8.13745C104.226 8.70712 104.929 9.31422 105.529 10.0294C104.297 11.4848 103.109 12.2333 102.629 12.541L103.018 12.8612C104.127 12.2915 105.157 11.568 106.067 10.6906C106.733 11.5888 107.085 12.2956 107.271 12.6824L108.317 11.7925ZM102.137 6.57812L101.219 14.1169H102.373L102.414 13.7718H108.644L108.702 13.3019H102.472L103.233 7.048H109.314L109.372 6.57812H102.137Z" fill="black"/>
<path d="M72.7191 7.69289L72.8432 6.39969C72.8763 6.329 72.8929 6.29158 72.897 6.23752C72.9012 6.19178 72.9053 6.18347 72.8474 6.13773L71.6229 6.12109C71.6229 6.32485 71.6063 6.7864 71.5815 6.99016L71.5029 7.68873L68.1893 7.67626L68.1562 8.16277H75.9665L75.9996 7.67626L72.7191 7.68458V7.69289ZM72.6157 8.42058H71.4864L71.4078 9.17737L68.7726 9.13994C68.7726 9.13994 68.2928 13.2399 68.2307 13.5767H69.4387L69.8978 9.66804L71.3871 9.68467L70.8121 14.3668H71.9952L72.4502 9.68467H74.1753L73.8319 12.2919C73.8319 12.2919 73.8237 12.8948 73.4803 12.9114C73.3024 12.9197 73.0253 12.8865 72.6447 12.8241C72.7646 13.2399 72.7481 13.4063 72.7481 13.4312C73.0997 13.4562 73.2611 13.4686 73.4596 13.4686C74.4649 13.4686 74.7793 13.2649 74.8454 12.4665L75.3088 9.14826L72.5206 9.18568L72.6199 8.42889L72.6157 8.42058Z" fill="black"/>
<path fill-rule="evenodd" clip-rule="evenodd" d="M56.1172 7.74644C56.3281 7.45537 56.4895 6.97718 56.688 6.70274C56.7791 6.64452 56.7915 6.64036 56.8039 6.61541C56.8287 6.56967 56.8121 6.5073 56.7956 6.49898L55.931 6C55.8814 6.13306 55.4139 7.3431 55.0995 7.7506C54.1232 7.7506 53.3414 7.7506 53.2462 7.73397C53.2462 8.01257 53.1883 8.04999 53.1511 8.48244C53.1511 8.48244 52.5306 13.8174 52.4727 14.1126H53.7137L53.7509 13.78H57.7926L57.7553 14.1126H58.7689C58.7689 14.1126 59.4266 8.03752 59.4762 7.72981C59.4762 7.72981 57.7553 7.73813 56.1172 7.74228V7.74644ZM57.867 13.2561H53.7799L54.0777 10.969H58.1194L57.867 13.2561ZM58.1442 10.3744H54.1026L54.3466 8.37017H58.3883L58.1442 10.3744Z" fill="black"/>
<path fill-rule="evenodd" clip-rule="evenodd" d="M66.3909 8.22458C66.4033 8.46991 65.849 13.2602 65.849 13.2602H63.8427C63.8427 13.2602 64.2398 9.54272 64.4714 7.57174L64.6245 6.5613C64.6576 6.49061 64.6742 6.45734 64.6783 6.40329C64.6824 6.35755 64.6866 6.34923 64.6286 6.30765L63.4248 6.29102C63.4248 6.31596 63.4166 6.36586 63.4166 6.36586C63.4166 6.41576 63.3173 7.5759 63.3173 7.5759C63.1311 9.54688 62.7505 13.2643 62.7505 13.2643H61.1289C61.1289 13.2643 61.7081 8.40754 61.7619 8.17884H60.5167C60.5291 8.43249 59.8548 13.7799 59.7969 14.1001H61.0007L61.0503 13.7924H65.7208V14.1001H66.7798C66.7674 13.7508 67.4334 8.51565 67.4913 8.22458H66.3868H66.3909Z" fill="black"/>
</g>
<defs>
<clipPath id="clip0_532_20404">
<rect width="180" height="45" fill="white"/>
</clipPath>
</defs>
</svg>
