<svg width="180" height="46" viewBox="0 0 180 46" fill="none" xmlns="http://www.w3.org/2000/svg">
<g clip-path="url(#clip0_534_3582)">
<path d="M39.9823 3.03595H40.4935V3.9317H42.7699V8.19932C42.7699 8.34008 42.7699 8.72077 42.2651 8.72077H41.2301L41.1507 8.20572L42.0937 8.21211C42.173 8.21211 42.2651 8.20572 42.2651 8.05216V4.41157H40.5252C40.5919 4.92023 40.8237 5.89596 42.2111 6.8141L41.8778 7.24278C40.6744 6.31824 40.3823 5.52166 40.2458 5.14737C39.9601 5.84477 39.541 6.62536 38.5662 7.22039L38.2551 6.77891C39.0965 6.32464 39.7473 5.60164 39.941 4.41157H38.1948V8.72077H37.6836V3.9317H39.9823V3.03595Z" fill="#231815"/>
<path d="M46.1644 3.2439V5.07699H44.3134V8.72397H43.834V3.2439H46.1644ZM45.6945 3.63099H44.3134V4.00528H45.6945V3.63099ZM45.6945 4.3252H44.3134V4.72508H45.6945V4.3252ZM48.225 7.33556C47.263 7.09562 46.8248 6.90688 46.4597 6.72773C45.9009 7.00285 45.304 7.1884 44.6944 7.31636L44.5357 6.92927C45.3072 6.78851 45.6183 6.66055 46.0438 6.4814C45.7104 6.26066 45.5644 6.12629 45.4469 6.02072C45.1135 6.23506 44.9897 6.28305 44.8087 6.35663L44.5579 6.02072C45.0691 5.82558 45.5326 5.53766 45.9136 5.08338L46.3105 5.26254C46.2438 5.34891 46.2248 5.36811 46.1771 5.42249H47.7107V5.78399C47.5265 5.98553 47.3138 6.21907 46.8883 6.4846C47.5265 6.77891 48.1774 6.88448 48.4282 6.91967L48.2218 7.33556H48.225ZM47.7805 8.54482H45.158V7.26838H47.7805V8.54482ZM47.3297 7.62348H45.5961V8.18012H47.3297V7.62348ZM45.7834 5.78399C45.9104 5.89596 46.0882 6.04632 46.4756 6.27345C46.8344 6.06551 46.9487 5.94395 47.0947 5.78399H45.7803H45.7834ZM49.0886 3.2471V8.2793C49.0886 8.46804 48.9965 8.72717 48.6251 8.72717H47.9805L47.9012 8.24411L48.4314 8.2505C48.5901 8.2505 48.6092 8.18972 48.6092 8.09055V5.08019H46.7709V3.2471H49.0886ZM48.6092 3.63419H47.2344V4.00848H48.6092V3.63419ZM48.6092 4.32839H47.2344V4.72828H48.6092V4.32839Z" fill="#231815"/>
<path d="M52.9904 3.04235V3.54461H55.4733V4.02448H50.6663V6.04312C50.6663 7.76104 50.3552 8.42966 50.2155 8.72717L49.8027 8.33368C50.0028 7.86661 50.1869 7.27158 50.1869 6.09111V3.54781H52.4824V3.04555H52.9936L52.9904 3.04235ZM52.0284 8.72717H51.5426V6.1295C51.2823 6.4846 51.1521 6.60296 50.9902 6.75332L50.7044 6.31184C51.3744 5.69122 51.7141 5.06099 52.0506 4.16524L52.5142 4.3188C52.4158 4.57153 52.3015 4.85945 52.0348 5.36171V8.72717H52.0284ZM54.8891 5.10898H55.5146V5.59205H54.8891V8.18652C54.8891 8.53523 54.7017 8.72717 54.3652 8.72717H53.4953L53.381 8.22491L54.2192 8.23131C54.3176 8.23131 54.3906 8.23131 54.3906 8.03617V5.59524H52.4443V5.11218H54.3906V4.24202H54.8891V5.11218V5.10898ZM53.3429 7.57229C53.2349 7.32596 53.0571 6.91648 52.5523 6.21267L52.9841 5.97274C53.4032 6.54218 53.6096 6.92927 53.8001 7.31637L53.3429 7.57229Z" fill="#231815"/>
<path d="M58.3336 4.08526V4.52674H56.1016V4.08526H58.3336ZM58.1336 3.2343V3.67578H56.2825V3.2343H58.1336ZM58.1336 4.95222V5.3937H56.2825V4.95222H58.1336ZM58.1336 5.86077V6.28945H56.2825V5.86077H58.1336ZM58.1336 6.74372V8.6248H56.2952V6.74372H58.1336ZM57.7018 7.166H56.7397V8.19612H57.7018V7.166ZM58.159 8.14813C58.4384 7.63307 58.5241 7.07003 58.559 6.68934L59.0099 6.73093C58.9686 7.1916 58.8384 7.88261 58.5908 8.39766L58.159 8.14493V8.14813ZM58.2796 5.58564C58.5844 5.42569 59.0226 5.17616 59.3274 4.62911C59.1432 4.55553 59.0289 4.51394 58.6225 4.38278L58.8035 4.00209C58.9876 4.05007 59.1273 4.08846 59.502 4.22282C59.5814 3.97649 59.6004 3.81334 59.6163 3.66618H58.5685V3.2375H61.5753C61.5753 3.77175 61.5753 5.0354 61.3975 5.49927C61.3117 5.72641 61.1974 5.87996 60.8387 5.87996H60.2926L60.2068 5.3777L60.7434 5.3841C60.9307 5.3841 60.9879 5.26893 61.0228 5.10898C61.1149 4.73468 61.1276 4.06607 61.1276 3.66938H60.1052C60.0576 3.97009 60.0195 4.13645 59.9274 4.40517C60.2735 4.56513 60.4132 4.6515 60.591 4.76667L60.3783 5.17616C60.1656 5.0418 60.0259 4.95542 59.7465 4.82106C59.4734 5.32332 59.1083 5.67202 58.6035 5.99193L58.2796 5.58884V5.58564ZM59.7338 6.67654V8.01377C59.7338 8.11934 59.7338 8.20252 59.8862 8.20252H60.283C60.4704 8.20252 60.4894 8.06176 60.5212 7.5467L60.9784 7.68106C60.9307 8.21531 60.8863 8.64399 60.4291 8.64399H59.7655C59.4353 8.64399 59.2734 8.50963 59.2734 8.11614V6.67654H59.7369H59.7338ZM60.3497 6.8237C59.8925 6.36943 59.4925 6.14229 59.3274 6.04952L59.6131 5.68802C59.8671 5.83518 60.2164 6.04312 60.6291 6.459L60.3497 6.8205V6.8237ZM61.3467 8.38167C61.226 7.70665 61.0609 7.25238 60.8101 6.70853L61.2419 6.57417C61.3276 6.74692 61.6673 7.42193 61.8197 8.24091L61.3467 8.38167Z" fill="#231815"/>
<path d="M64.9094 5.24334H63.2552V4.76347H67.0843V5.24334H65.4174V6.30544H67.3764V6.77252H65.4174V8.06496C65.5698 8.08415 65.7444 8.09695 65.9095 8.09695H68.0622L67.9638 8.58641H65.7921C64.3443 8.58641 63.7537 7.72905 63.5219 7.39634C63.2552 7.96578 63.0362 8.31768 62.6107 8.69518L62.2773 8.2601C62.9155 7.69706 63.3378 6.75652 63.5124 5.69761L64.0109 5.77119C63.9442 6.23826 63.8648 6.51979 63.7315 6.90688C63.9918 7.37395 64.4014 7.77704 64.9126 7.94979V5.24654L64.9094 5.24334ZM65.4269 3.02956V3.56381H67.878V4.92983H67.3732V4.04048H62.9631V4.92983H62.4647V3.56381H64.8999V3.02956H65.4301H65.4269Z" fill="#231815"/>
<path d="M69.6503 4.22602V3.02956H70.1361V4.22602H70.679V4.68669H70.1361V6.13269C70.4409 6.01113 70.533 5.96634 70.66 5.90556L70.7012 6.38862C70.5488 6.4622 70.4028 6.53578 70.1361 6.64135V8.73357H69.6503V6.8205C69.2185 6.98046 68.901 7.06683 68.6343 7.14681L68.5137 6.63175C69.1169 6.48459 69.4376 6.37902 69.6503 6.31184V4.68669H69.2312C69.1836 5.0418 69.1042 5.48327 68.9582 5.83837L68.5327 5.61124C68.8058 4.93623 68.8502 3.9381 68.8598 3.37826L69.317 3.40385C69.317 3.583 69.3169 3.81974 69.282 4.22602H69.6535H69.6503ZM72.7237 3.02956V3.61819H74.0128V4.09166H72.7237V4.92663H74.2255V5.4001H73.581V6.08151H74.1715V6.55498H73.581V8.04576C73.581 8.67598 73.4413 8.73997 72.9174 8.73997H72.1459L72.0474 8.21851L72.8253 8.22491C73.0444 8.22491 73.0825 8.15773 73.0825 7.95619V6.55817H70.8441V6.08471H73.0825V5.4033H70.7393V4.92983H72.2316V4.09486H70.9584V3.62139H72.2316V3.03276H72.7237V3.02956ZM71.7998 7.9146C71.495 7.46672 71.2092 7.1788 71.0156 6.99005L71.4283 6.69574C71.7395 6.97086 72.0665 7.38354 72.2252 7.61068L71.7998 7.9178V7.9146Z" fill="#231815"/>
<path d="M80.3337 3.25669V3.73016H75.5522V8.11934H80.4734V8.59281H75.041V3.25669H80.3337ZM79.4924 4.13965C79.1749 4.82106 78.9018 5.24974 78.5113 5.7584C79.2034 6.26066 79.5273 6.50059 80.0861 7.03484L79.7083 7.47632C79.0098 6.75332 78.3589 6.28625 78.1811 6.15829C77.4921 6.92607 76.7333 7.45713 76.1967 7.79623L75.8379 7.38035C76.1713 7.2012 76.9936 6.75332 77.7715 5.88316C77.308 5.56325 76.6888 5.21455 76.0665 4.90744L76.3396 4.50435C76.819 4.74428 77.3873 5.0322 78.0985 5.49287C78.597 4.83066 78.8288 4.3284 78.9875 3.9477L79.486 4.14285L79.4924 4.13965Z" fill="#231815"/>
<path d="M86.7025 3.90611H81.0605V3.46464H83.6228V3.01676H84.153V3.46464H86.7025V3.90611ZM86.458 8.2601C86.458 8.66959 86.1977 8.72077 86.0802 8.72077H85.1182L85.0261 8.23771L85.7818 8.25051C85.8738 8.25051 85.9469 8.22491 85.9469 8.06496V6.32464H81.8225V8.72077H81.3177V5.91196H86.458V8.2601ZM85.8865 5.55046H81.8638V4.24522H85.8865V5.55046ZM85.3817 4.61312H82.356V5.17616H85.3817V4.61312ZM85.296 8.06496H82.4798V6.70533H85.296V8.06496ZM84.8261 7.08283H82.9465V7.67786H84.8261V7.08283Z" fill="#231815"/>
<path d="M90.0025 3.45184V3.89332H89.0468C89.1929 4.20683 89.2246 4.29321 89.2532 4.38918L88.7547 4.56833C88.7007 4.35399 88.6214 4.11406 88.5293 3.89332H88.2435C87.9768 4.26761 87.7324 4.46916 87.5736 4.59712L87.2402 4.23562C87.8784 3.77495 88.1229 3.17352 88.1959 2.99117L88.6753 3.08394C88.6277 3.21191 88.6023 3.27269 88.5166 3.45184H90.0025ZM90.3613 4.46276V4.79867H92.5711V5.24014H90.3613V5.768H92.9425V6.20947H91.7932V6.73093H92.9013V7.17241H91.7932V8.10335C91.7932 8.45205 91.7932 8.71758 91.2757 8.71758H90.2597L90.1739 8.20892L91.082 8.22171C91.2407 8.22171 91.2757 8.18013 91.2757 8.02017V7.17241H87.3641V6.73093H91.2757V6.20947H87.3037V5.768H89.866V5.24014H87.6752V4.79867H89.866V4.46276H90.1454L89.812 4.20043C90.0977 3.9541 90.3898 3.64379 90.6565 2.99757L91.1328 3.08394C91.0852 3.21831 91.0598 3.29189 90.9804 3.45184H92.933V3.89332H91.663C91.7487 4.05327 91.79 4.14605 91.9138 4.40837L91.4439 4.58752C91.3773 4.39878 91.2376 4.05327 91.1645 3.89332H90.72C90.4946 4.21963 90.3613 4.34759 90.2438 4.46276H90.3644H90.3613ZM89.1325 8.47764C88.6944 7.88901 88.4499 7.68106 88.2689 7.52111L88.615 7.2012C88.9452 7.45393 89.2913 7.80903 89.5262 8.13854L89.1294 8.47444L89.1325 8.47764Z" fill="#231815"/>
<path d="M98.178 5.44489C97.6922 5.87996 97.1366 6.19348 96.6318 6.44301V6.57097H99.1622V7.04444H96.6318V8.2537C96.6318 8.65999 96.3143 8.72717 96.1333 8.72717H95.0252L94.9268 8.19932L95.9174 8.20572C96.1047 8.20572 96.1174 8.15773 96.1174 8.01697V7.04764H93.5234V6.57417H96.1174V6.06551H96.3778C96.5175 6.01113 97.0032 5.80958 97.362 5.48327H94.5013V5.029H98.1716V5.44489H98.178ZM97.5874 4.02128C97.7748 3.68857 97.9938 3.13833 98.0446 3.01036L98.5749 3.18951C98.4542 3.47743 98.3018 3.76535 98.1431 4.02448H99.0257V5.3809H98.5272V4.47875H94.1775V5.3809H93.679V4.02448H94.5617C94.441 3.66938 94.2378 3.36227 94.1426 3.21511L94.5934 3.03596C94.8379 3.36227 94.9776 3.67258 95.0633 3.90611L94.7585 4.02128H97.5938H97.5874ZM96.2539 4.01488C96.146 3.74616 95.9745 3.41985 95.7904 3.14473L96.2603 2.95598C96.5111 3.32388 96.6794 3.73976 96.7238 3.85173L96.2539 4.01808V4.01488Z" fill="#231815"/>
<path d="M101.694 6.70853C101.377 6.24786 101.256 6.05272 101.104 5.71681V8.72717H100.628V5.72961C100.335 6.67334 100.056 7.07963 99.8846 7.31637L99.6973 6.68934C99.8782 6.43661 100.301 5.84477 100.586 4.69629H99.7703V4.23562H100.628V3.03276H101.104V4.23562H101.802V4.69629H101.104V4.99701C101.409 5.67842 101.78 6.06551 101.948 6.24146L101.694 6.70853ZM101.561 8.2665C102.418 7.99778 102.875 7.69066 103.215 7.40274C102.717 6.8141 102.498 6.18708 102.377 5.79679L102.828 5.65603C103.06 6.37903 103.326 6.77252 103.558 7.04764C103.783 6.79171 104.037 6.42381 104.314 5.64963L104.777 5.80958C104.479 6.63815 104.161 7.08603 103.901 7.39634C104.279 7.73865 104.752 8.00417 105.533 8.24091L105.282 8.73037C104.599 8.50323 104.053 8.21531 103.555 7.74824C103.129 8.14813 102.599 8.44245 101.821 8.73677L101.567 8.2633L101.561 8.2665ZM101.726 5.3905C101.907 5.27533 102.364 4.99061 102.78 4.37318L103.193 4.60032C102.86 5.20175 102.298 5.60484 102.069 5.752L101.729 5.3905H101.726ZM103.837 3.03596V3.71097H105.4V4.17164H101.821V3.71097H103.329V3.03596H103.834H103.837ZM105.177 5.7456C104.514 5.31052 104.095 4.73468 103.984 4.58752L104.384 4.34759C104.803 4.84985 105.114 5.10258 105.498 5.34571L105.174 5.7456H105.177Z" fill="#231815"/>
<path d="M109.068 8.6248V3.14153H110.443C110.361 3.26309 109.662 4.33159 109.662 5.88316C109.662 7.43473 110.364 8.50323 110.443 8.6248H109.068Z" fill="#231815"/>
<path d="M115.189 5.56325H113.807V6.40142H115.56V6.8141H113.807V7.85701H116.081V8.29849H111.067V7.85701H113.344V6.8141H111.604V6.40142H113.344V5.56325H111.982V5.14417C111.61 5.3713 111.379 5.47368 111.182 5.56965L110.953 5.11858C111.823 4.78267 112.722 4.18763 113.328 3.33027H113.827C114.379 4.07886 115.189 4.74108 116.198 5.11218L115.97 5.56325C115.779 5.47368 115.531 5.36491 115.192 5.15057V5.56325H115.189ZM115.173 5.13777C114.833 4.91703 114.16 4.45316 113.572 3.72056C113.128 4.28361 112.591 4.76987 111.985 5.13777H115.173Z" fill="#231815"/>
<path d="M121.494 3.57021V8.32088H116.861V3.57021H121.494ZM121.046 3.98289H117.312V7.905H121.046V3.98289ZM120.744 4.77307H119.344V5.65603H120.636V6.02712H119.344V7.09243H120.824V7.48272H117.541V7.09243H118.919V6.02712H117.741V5.65603H118.919V4.77307H117.649V4.39238H120.748V4.77307H120.744ZM120.078 7.00285C120.055 6.95166 119.852 6.55498 119.63 6.27025L120.008 6.0943C120.062 6.16468 120.325 6.50379 120.462 6.8109L120.078 7.00285Z" fill="#231815"/>
<path d="M124.638 3.89652V3.31748H125.092V3.89652H127.33V4.3316H123.158V6.05272C123.158 6.79171 123.009 7.71306 122.533 8.42326L122.184 8.08095C122.561 7.49232 122.704 6.8397 122.704 6.16789V3.89652H124.638ZM126.105 5.95354C126.543 6.60616 126.991 7.5531 127.238 8.2697L126.784 8.46804C126.717 8.2697 126.67 8.11934 126.587 7.921C125.682 8.07136 123.873 8.20252 123.149 8.24091L123.079 7.77064C123.406 7.76424 123.546 7.75784 123.654 7.75464C123.889 7.1852 124.251 6.19348 124.616 4.57793L125.092 4.69949C124.828 5.70401 124.511 6.80131 124.111 7.73225C125.025 7.67787 125.609 7.64267 126.432 7.5435C126.235 7.11802 126.07 6.75332 125.698 6.14869L126.105 5.95035V5.95354Z" fill="#231815"/>
<path d="M129.452 7.11802C129.083 7.33236 128.407 7.63628 127.918 7.79623L127.852 7.30677C128.01 7.26198 128.207 7.20759 128.525 7.09243V5.17936H127.88V4.74748H128.525V3.33667H128.953V4.74748H129.423V5.17936H128.953V6.92927C129.233 6.8205 129.325 6.76932 129.452 6.69894V7.12442V7.11802ZM129.166 7.42513C129.89 7.33236 130.595 7.15641 131.1 7.01565L131.115 7.42513C130.55 7.65227 129.407 7.86661 129.255 7.8954L129.166 7.42513ZM132.947 4.17484V4.59392H131.722C131.744 5.53766 131.75 5.7648 131.83 6.4622C132.147 5.85437 132.268 5.30412 132.335 4.98421L132.741 5.10578C132.551 6.04312 132.243 6.62856 131.941 7.10202C132.03 7.5499 132.23 7.94019 132.325 7.94019C132.452 7.94019 132.605 7.31636 132.649 7.13401L133.027 7.34835C132.89 7.87941 132.719 8.45845 132.341 8.45845C132.055 8.45845 131.833 8.17053 131.623 7.5371C131.214 8.05536 130.814 8.33688 130.601 8.48724L130.239 8.15133C130.506 7.98178 131.004 7.65547 131.493 7.00285C131.344 6.27985 131.296 5.33292 131.281 4.59392H129.404V4.17484H131.271C131.265 3.82294 131.265 3.5798 131.265 3.33027H131.696C131.696 3.46783 131.712 4.09806 131.712 4.17484H132.951H132.947ZM131.027 6.64135H129.553V4.98741H131.027V6.64135ZM130.633 5.35531H129.944V6.26706H130.633V5.35531ZM132.506 4.16844C132.278 3.89332 132.122 3.75895 131.922 3.61179L132.211 3.31428C132.43 3.46464 132.633 3.64059 132.808 3.85493L132.506 4.16844Z" fill="#231815"/>
<path d="M134.579 5.47368V7.01885C134.611 7.1948 134.668 7.47632 134.988 7.67467C135.296 7.86661 135.754 7.8954 135.836 7.8954H138.624L138.535 8.32409H135.919C135.471 8.32409 134.823 8.23131 134.452 7.63948C134.239 7.93059 133.922 8.24731 133.668 8.45525L133.42 7.98178C133.639 7.84422 133.82 7.70666 134.131 7.37075V5.91516H133.483V5.47368H134.572H134.579ZM134.436 4.59712C134.217 4.29961 133.906 3.9509 133.566 3.66938L133.89 3.37826C134.176 3.599 134.464 3.85813 134.788 4.29321L134.439 4.59712H134.436ZM138.382 4.58113V7.21719C138.382 7.39314 138.344 7.64267 137.957 7.64267H137.36L137.284 7.21719L137.814 7.22359C137.906 7.22359 137.967 7.2076 137.967 7.05724V6.61576H136.954V7.57549H136.544V6.61576H135.531V7.64267H135.122V4.58113H136.322C136.125 4.43717 135.95 4.322 135.731 4.21003L135.973 3.91251C136.182 4.02128 136.417 4.15565 136.706 4.36999C137.22 4.14285 137.417 3.99889 137.576 3.87732H135.065V3.50623H138.262V3.87732C137.973 4.10766 137.719 4.26761 137.024 4.57793H138.386L138.382 4.58113ZM136.544 4.93943H135.531V5.42569H136.544V4.93943ZM136.544 5.7712H135.531V6.26066H136.544V5.7712ZM137.967 4.93943H136.954V5.42569H137.967V4.93943ZM137.967 5.7712H136.954V6.26066H137.967V5.7712Z" fill="#231815"/>
<path d="M140.064 8.44565H139.62V5.61444C139.439 5.90556 139.363 6.00153 139.252 6.1231L139.004 5.63043C139.493 5.07379 139.82 4.07567 139.947 3.31428L140.407 3.38466C140.293 4.00209 140.172 4.35079 140.061 4.6643V8.44245L140.064 8.44565ZM144.192 4.63231H140.369V4.21963H144.192V4.63231ZM143.951 8.34008H140.683V6.59017H143.951V8.34008ZM143.868 5.4001H140.769V4.99701H143.868V5.4001ZM143.868 6.18708H140.769V5.79039H143.868V6.18708ZM143.817 3.84853H140.801V3.44544H143.817V3.84853ZM143.5 6.98046H141.128V7.94019H143.5V6.98046Z" fill="#231815"/>
<path d="M146.072 3.9413V3.31748H146.487V3.9413H147.681V4.35399H146.487V4.98741H147.789V5.4065H146.487V5.95355H147.615V7.70346C147.615 7.94019 147.545 8.05536 147.281 8.05536H146.795L146.719 7.61388L147.075 7.62028C147.189 7.62028 147.202 7.5499 147.202 7.46033V6.36943H146.491V8.44885H146.075V6.36943H145.373V8.09695H144.951V5.95674H146.075V5.4097H144.729V4.99061H146.075V4.35719H145.389C145.284 4.63871 145.214 4.75388 145.132 4.88824L144.744 4.6675C144.897 4.43077 145.113 4.06607 145.198 3.39746L145.63 3.45184C145.598 3.64379 145.576 3.76535 145.525 3.9445H146.072V3.9413ZM148.491 3.63099V7.1884H148.043V3.63099H148.491ZM149.602 3.31748V8.03936C149.602 8.42646 149.291 8.44885 149.139 8.44885H148.389L148.307 7.96898L149.002 7.97858C149.132 7.97858 149.145 7.9114 149.145 7.83462V3.31748H149.605H149.602Z" fill="#231815"/>
<path d="M151.756 3.14153V8.6248H150.381C150.463 8.50323 151.165 7.43473 151.165 5.88316C151.165 4.33159 150.463 3.26309 150.381 3.14153H151.756Z" fill="#231815"/>
<path d="M38.6803 36.553C39.5217 38.3061 40.3916 39.9441 41.3346 41.6876C41.7061 40.9614 43.1761 38.2773 44.081 36.553H44.2016C44.4779 38.9396 44.6652 40.971 44.9605 43.1048C44.8112 43.076 44.6747 43.0568 44.5255 43.0568C44.3763 43.0568 44.2397 43.076 44.0905 43.1048C43.9603 41.4381 43.8302 39.8897 43.6365 38.2965H43.6174C42.7761 39.8513 41.9252 41.3805 41.1949 43.0568H41.1124C40.3916 41.5084 39.5407 39.9057 38.7343 38.2965H38.7152C38.5406 39.8353 38.2803 42.0523 38.2707 43.1048C38.1596 43.076 38.058 43.0568 37.9469 43.0568C37.8358 43.0568 37.7342 43.076 37.623 43.1048C37.9469 41.0446 38.3152 38.5301 38.5216 36.553H38.6803Z" fill="#231815"/>
<path d="M47.802 38.5589C49.0974 38.5589 49.7166 39.4258 49.7166 40.4591C49.7166 40.5807 49.707 40.7023 49.6975 40.8238C49.0308 40.8142 48.3735 40.795 47.7195 40.795C47.3131 40.795 46.9162 40.8142 46.5066 40.8238C46.4971 40.9166 46.4971 40.9998 46.4971 41.0862C46.4971 42.0555 47.0718 42.8105 48.0973 42.8105C48.5863 42.8105 49.1609 42.5226 49.4848 42.1483L49.5324 42.1771L49.4784 42.6345C49.1101 42.9321 48.5069 43.204 47.9354 43.204C46.6051 43.204 45.6875 42.2538 45.6875 41.0158C45.6875 39.5058 46.4463 38.5653 47.8052 38.5653L47.802 38.5589ZM46.5257 40.4687C46.9035 40.4783 47.3385 40.4975 47.729 40.4975C48.1195 40.4975 48.5704 40.4783 48.9577 40.4687C48.9577 39.8065 48.7831 38.8564 47.8211 38.8564C46.9162 38.8564 46.5733 39.7969 46.5257 40.4687Z" fill="#231815"/>
<path d="M51.0004 36.553C51.2608 36.553 51.4735 36.7674 51.4735 37.0297C51.4735 37.292 51.2608 37.5064 51.0004 37.5064C50.7401 37.5064 50.5273 37.292 50.5273 37.0297C50.5273 36.7674 50.7401 36.553 51.0004 36.553ZM50.6575 40.392C50.6575 39.8321 50.6385 39.1795 50.5845 38.6484C50.7242 38.6772 50.8607 38.6964 51.0004 38.6964C51.1401 38.6964 51.2766 38.6772 51.4163 38.6484C51.3624 39.1795 51.3433 39.8321 51.3433 40.392V41.3613C51.3433 41.9211 51.3624 42.5738 51.4163 43.1048C51.2766 43.076 51.1401 43.0568 51.0004 43.0568C50.8607 43.0568 50.7242 43.076 50.5845 43.1048C50.6385 42.5738 50.6575 41.9211 50.6575 41.3613V40.392Z" fill="#231815"/>
<path d="M52.6883 38.7348C52.6883 37.8775 52.6692 36.6746 52.6152 36.0508C52.7549 36.0796 52.8915 36.0988 53.0312 36.0988C53.1709 36.0988 53.3074 36.0796 53.4471 36.0508C53.3931 36.6746 53.3741 37.8775 53.3741 38.6868V39.3938H53.3931C53.736 38.8628 54.2059 38.5557 54.8727 38.5557C55.5394 38.5557 56.3522 38.8916 56.3522 40.1776C56.3522 40.7087 56.3141 41.2685 56.3141 41.9019C56.3141 42.3114 56.3141 42.7049 56.3332 43.1048C56.1935 43.076 56.0728 43.0568 55.9458 43.0568C55.8188 43.0568 55.695 43.076 55.568 43.1048C55.587 42.4234 55.6315 41.7452 55.6315 41.0254V40.4559C55.6315 39.5442 55.2346 39.0387 54.6218 39.0387C53.7614 39.0387 53.3741 39.5986 53.3741 40.5679C53.3741 41.2749 53.3931 42.4778 53.4471 43.1016C53.3074 43.0728 53.1709 43.0536 53.0312 43.0536C52.8915 43.0536 52.7549 43.0728 52.6152 43.1016C52.6692 42.4778 52.6883 41.2749 52.6883 40.4176V38.7316V38.7348Z" fill="#231815"/>
<path d="M59.4588 38.5589C60.532 38.5589 61.7067 39.1827 61.7067 40.8782C61.7067 42.5738 60.532 43.1976 59.4588 43.1976C58.3857 43.1976 57.2109 42.5738 57.2109 40.8782C57.2109 39.1827 58.3857 38.5589 59.4588 38.5589ZM59.4588 42.9001C60.551 42.9001 60.8939 41.9211 60.8939 40.8782C60.8939 39.8353 60.551 38.8564 59.4588 38.8564C58.3666 38.8564 58.0269 39.8353 58.0269 40.8782C58.0269 41.9211 58.3698 42.9001 59.4588 42.9001Z" fill="#231815"/>
<path d="M62.6179 38.7348C62.6179 37.8775 62.5989 36.6746 62.5449 36.0508C62.6846 36.0796 62.8211 36.0988 62.9608 36.0988C63.1005 36.0988 63.2371 36.0796 63.3768 36.0508C63.3228 36.6746 63.3037 37.8775 63.3037 38.7348V40.4303C63.3037 40.5423 63.3418 40.6063 63.4149 40.6063C63.5069 40.6063 63.6276 40.5039 63.7768 40.392C63.9991 40.2256 64.9039 39.3107 65.4786 38.6484C65.5802 38.6772 65.7009 38.6964 65.831 38.6964C65.9612 38.6964 66.0819 38.6772 66.2946 38.6484C65.5262 39.2723 64.8055 39.8961 64.1673 40.5231C64.869 41.3805 65.6374 42.2474 66.3962 43.1048C66.1835 43.076 66.0247 43.0568 65.8691 43.0568C65.7136 43.0568 65.5548 43.076 65.3961 43.1048C64.8595 42.3978 63.9705 41.3517 63.5387 40.8878C63.5006 40.8398 63.4466 40.795 63.399 40.795C63.345 40.795 63.3069 40.8334 63.3069 40.907V41.4669C63.3069 42.0171 63.326 42.5578 63.3799 43.108C63.2402 43.0792 63.1037 43.06 62.964 43.06C62.8243 43.06 62.6878 43.0792 62.5481 43.108C62.6021 42.4842 62.6211 41.2813 62.6211 40.424V38.738L62.6179 38.7348Z" fill="#231815"/>
<path d="M67.1103 39.0995C67.6659 38.6804 68.1104 38.5589 68.5993 38.5589C69.4883 38.5589 70.0979 39.1091 70.0979 39.9377C70.0979 40.6351 70.0598 41.3261 70.0598 42.1099C70.0598 42.417 70.0598 42.8009 70.4218 42.8009C70.4757 42.8009 70.5519 42.8009 70.6154 42.7625V42.9672C70.4853 43.0216 70.263 43.0984 70.0249 43.0984C69.628 43.0984 69.4248 42.8361 69.3867 42.5194C68.9422 42.9672 68.5644 43.2008 67.9358 43.2008C67.3071 43.2008 66.707 42.7625 66.707 42.0555C66.707 41.3101 67.2055 40.9102 68.012 40.7791C69.3518 40.5647 69.3994 40.4911 69.3994 40.1264C69.3994 39.5026 69.1232 38.9524 68.3834 38.9524C67.8945 38.9524 67.4309 39.1859 67.2182 39.5858H67.1166V39.1027L67.1103 39.0995ZM69.3963 40.7567C68.7581 40.971 67.4627 40.907 67.4627 41.9211C67.4627 42.5066 67.8596 42.8073 68.266 42.8073C68.739 42.8073 69.1454 42.5002 69.3581 42.1547L69.3963 40.7567Z" fill="#231815"/>
<path d="M73.405 39.0419C72.5446 39.0419 72.1573 39.6018 72.1573 40.5711V41.3645C72.1573 41.9243 72.1763 42.577 72.2303 43.108C72.0906 43.0792 71.9541 43.06 71.8144 43.06C71.6747 43.06 71.5381 43.0792 71.3984 43.108C71.4524 42.577 71.4715 41.9243 71.4715 41.3645V40.3952C71.4715 39.8353 71.4524 39.1827 71.3984 38.6516C71.5381 38.6804 71.6747 38.6996 71.8144 38.6996C71.9064 38.6996 72.0461 38.6804 72.1858 38.6516C72.1668 38.9044 72.1573 39.1443 72.1573 39.397H72.1763C72.5192 38.866 72.9891 38.5589 73.6559 38.5589C74.3226 38.5589 75.1354 38.8948 75.1354 40.1808C75.1354 40.7119 75.0973 41.2717 75.0973 41.9051C75.0973 42.3146 75.0973 42.7081 75.1164 43.108C74.9767 43.0792 74.856 43.06 74.729 43.06C74.602 43.06 74.4782 43.0792 74.3512 43.108C74.3702 42.4266 74.4147 41.7484 74.4147 41.0286V40.4591C74.4147 39.5474 74.0178 39.0419 73.405 39.0419Z" fill="#231815"/>
<path d="M83.9404 39.0899C83.9404 38.2901 83.9023 37.4776 83.8674 36.6778C84.0262 36.7066 84.1722 36.7258 84.3214 36.7258C84.4707 36.7258 84.6167 36.7066 84.7755 36.6778C84.7374 37.4776 84.7024 38.2901 84.7024 39.0899V40.6927C84.7024 41.4925 84.7405 42.305 84.7755 43.1048C84.6167 43.076 84.4707 43.0568 84.3214 43.0568C84.1722 43.0568 84.0262 43.076 83.8674 43.1048C83.9055 42.305 83.9404 41.4925 83.9404 40.6927V39.8545C83.2927 39.8449 82.6546 39.8353 82.0069 39.8353C81.3592 39.8353 80.721 39.8449 80.0733 39.8545V40.6927C80.0733 41.4925 80.1114 42.305 80.1463 43.1048C79.9876 43.076 79.8415 43.0568 79.6923 43.0568C79.5431 43.0568 79.397 43.076 79.2383 43.1048C79.2764 42.305 79.3113 41.4925 79.3113 40.6927V39.0899C79.3113 38.2901 79.2732 37.4776 79.2383 36.6778C79.397 36.7066 79.5431 36.7258 79.6923 36.7258C79.8415 36.7258 79.9876 36.7066 80.1463 36.6778C80.1082 37.4776 80.0733 38.2901 80.0733 39.0899V39.4162C80.721 39.4258 81.3592 39.445 82.0069 39.445C82.6546 39.445 83.2927 39.4258 83.9404 39.4162V39.0899Z" fill="#231815"/>
<path d="M86.559 36.553C86.8194 36.553 87.0321 36.7674 87.0321 37.0297C87.0321 37.292 86.8194 37.5064 86.559 37.5064C86.2987 37.5064 86.0859 37.292 86.0859 37.0297C86.0859 36.7674 86.2987 36.553 86.559 36.553ZM86.2161 40.392C86.2161 39.8321 86.1971 39.1795 86.1431 38.6484C86.2828 38.6772 86.4193 38.6964 86.559 38.6964C86.6987 38.6964 86.8352 38.6772 86.9749 38.6484C86.921 39.1795 86.9019 39.8321 86.9019 40.392V41.3613C86.9019 41.9211 86.921 42.5738 86.9749 43.1048C86.8352 43.076 86.6987 43.0568 86.559 43.0568C86.4193 43.0568 86.2828 43.076 86.1431 43.1048C86.1971 42.5738 86.2161 41.9211 86.2161 41.3613V40.392Z" fill="#231815"/>
<path d="M89.7346 38.5589C89.9664 38.5589 90.1505 38.5781 90.4839 38.5973C90.7601 38.6165 91.0014 38.6357 91.1316 38.6357C91.4935 38.6357 91.7602 38.6165 91.8809 38.5877C91.8714 38.6516 91.8618 38.7188 91.8618 38.7828C91.8618 38.8468 91.8714 38.914 91.8809 38.978C91.5285 38.9492 91.1887 38.914 90.8554 38.9044L90.8363 38.9236C91.2141 39.1283 91.4745 39.6306 91.4745 40.0976C91.4745 41.0286 90.7982 41.5884 89.7536 41.5884C89.5885 41.5884 89.4203 41.5692 89.2456 41.5692C89.0234 41.5692 88.7916 41.7548 88.7916 41.9979C88.7916 42.3242 88.9218 42.465 89.3377 42.4746C89.6806 42.4842 90.014 42.4938 90.3537 42.5034C91.4808 42.5322 91.9349 43.0344 91.9349 43.6966C91.9349 44.554 91.2967 45.5873 89.7441 45.5873C88.5598 45.5873 87.8105 45.0755 87.8105 44.2469C87.8105 43.5751 88.309 43.1656 88.8011 43.0184V42.9992C88.4233 42.8873 88.2201 42.6185 88.2201 42.2538C88.2201 41.8444 88.5725 41.5372 88.8773 41.4797V41.4605C88.3122 41.2077 87.9725 40.7599 87.9725 40.0816C87.9725 39.0483 88.7757 38.5621 89.7378 38.5621L89.7346 38.5589ZM89.8552 43.06C88.9504 43.06 88.4043 43.3479 88.4043 44.1413C88.4043 44.9891 88.9948 45.3154 89.7632 45.3154C90.5315 45.3154 91.2522 44.9347 91.2522 44.0933C91.2522 43.3671 90.8363 43.06 89.8552 43.06ZM89.7441 38.8308C89.0774 38.8308 88.69 39.3235 88.69 40.0784C88.69 40.8334 89.0234 41.3453 89.7346 41.3453C90.4458 41.3453 90.7506 40.7215 90.7506 40.0305C90.7506 39.2659 90.3442 38.8276 89.7441 38.8276V38.8308Z" fill="#231815"/>
<path d="M92.6902 38.7348C92.6902 37.8775 92.6712 36.6746 92.6172 36.0508C92.7569 36.0796 92.8934 36.0988 93.0331 36.0988C93.1728 36.0988 93.3093 36.0796 93.449 36.0508C93.3951 36.6746 93.376 37.8775 93.376 38.6868V39.3938H93.3951C93.738 38.8628 94.2079 38.5557 94.8746 38.5557C95.5414 38.5557 96.3542 38.8916 96.3542 40.1776C96.3542 40.7087 96.3161 41.2685 96.3161 41.9019C96.3161 42.3114 96.3161 42.7049 96.3351 43.1048C96.1954 43.076 96.0748 43.0568 95.9478 43.0568C95.8208 43.0568 95.6969 43.076 95.5699 43.1048C95.589 42.4234 95.6334 41.7452 95.6334 41.0254V40.4559C95.6334 39.5442 95.2366 39.0387 94.627 39.0387C93.7665 39.0387 93.3792 39.5986 93.3792 40.5679C93.3792 41.2749 93.3982 42.4778 93.4522 43.1016C93.3125 43.0728 93.176 43.0536 93.0363 43.0536C92.8966 43.0536 92.7601 43.0728 92.6204 43.1016C92.6743 42.4778 92.6934 41.2749 92.6934 40.4176V38.7316L92.6902 38.7348Z" fill="#231815"/>
<path d="M100.33 41.8668C100.534 42.305 100.997 42.8361 101.791 42.8361C102.585 42.8361 103.112 42.2314 103.112 41.4861C103.112 39.7713 100.197 40.5071 100.197 38.3189C100.197 37.2856 100.975 36.5594 102.204 36.5594C102.785 36.5594 103.204 36.7002 103.572 36.9977C103.461 37.212 103.397 37.4264 103.321 37.7815H103.21C103.08 37.436 102.804 36.9049 102.108 36.9049C101.413 36.9049 100.915 37.3816 100.915 38.0598C100.915 39.8033 103.829 39.0771 103.829 41.1342C103.829 42.2698 102.988 43.2296 101.562 43.2296C100.794 43.2296 100.359 42.9608 100.035 42.6985C100.146 42.4106 100.175 42.2219 100.21 41.87H100.321L100.33 41.8668Z" fill="#231815"/>
<path d="M106.896 38.5589C107.572 38.5589 108.153 38.754 108.385 38.9684C108.302 39.1539 108.226 39.3587 108.182 39.5826H108.108C107.934 39.2659 107.508 38.8564 106.924 38.8564C105.807 38.8564 105.353 39.7233 105.353 40.8686C105.353 42.1451 105.927 42.8073 106.953 42.8073C107.442 42.8073 108.016 42.5194 108.34 42.1451L108.388 42.1739C108.359 42.3242 108.34 42.481 108.334 42.6313C107.966 42.9289 107.362 43.2008 106.791 43.2008C105.718 43.2008 104.543 42.5482 104.543 40.8814C104.543 39.2147 105.718 38.5621 106.902 38.5621L106.896 38.5589Z" fill="#231815"/>
<path d="M109.251 38.7348C109.251 37.8775 109.232 36.6746 109.178 36.0508C109.317 36.0796 109.454 36.0988 109.594 36.0988C109.733 36.0988 109.87 36.0796 110.01 36.0508C109.956 36.6746 109.937 37.8775 109.937 38.6868V39.3938H109.956C110.299 38.8628 110.768 38.5557 111.435 38.5557C112.102 38.5557 112.915 38.8916 112.915 40.1776C112.915 40.7087 112.877 41.2685 112.877 41.9019C112.877 42.3114 112.877 42.7049 112.896 43.1048C112.756 43.076 112.635 43.0568 112.508 43.0568C112.381 43.0568 112.257 43.076 112.13 43.1048C112.15 42.4234 112.194 41.7452 112.194 41.0254V40.4559C112.194 39.5442 111.797 39.0387 111.188 39.0387C110.327 39.0387 109.94 39.5986 109.94 40.5679C109.94 41.2749 109.959 42.4778 110.013 43.1016C109.873 43.0728 109.737 43.0536 109.597 43.0536C109.457 43.0536 109.321 43.0728 109.181 43.1016C109.235 42.4778 109.254 41.2749 109.254 40.4176V38.7316L109.251 38.7348Z" fill="#231815"/>
<path d="M116.017 38.5589C117.091 38.5589 118.265 39.1827 118.265 40.8782C118.265 42.5738 117.091 43.1976 116.017 43.1976C114.944 43.1976 113.77 42.5738 113.77 40.8782C113.77 39.1827 114.944 38.5589 116.017 38.5589ZM116.017 42.9001C117.11 42.9001 117.453 41.9211 117.453 40.8782C117.453 39.8353 117.11 38.8564 116.017 38.8564C114.925 38.8564 114.586 39.8353 114.586 40.8782C114.586 41.9211 114.928 42.9001 116.017 42.9001Z" fill="#231815"/>
<path d="M121.113 38.5589C122.186 38.5589 123.361 39.1827 123.361 40.8782C123.361 42.5738 122.186 43.1976 121.113 43.1976C120.04 43.1976 118.865 42.5738 118.865 40.8782C118.865 39.1827 120.04 38.5589 121.113 38.5589ZM121.113 42.9001C122.205 42.9001 122.548 41.9211 122.548 40.8782C122.548 39.8353 122.205 38.8564 121.113 38.8564C120.021 38.8564 119.681 39.8353 119.681 40.8782C119.681 41.9211 120.024 42.9001 121.113 42.9001Z" fill="#231815"/>
<path d="M124.354 38.7348C124.354 37.8775 124.335 36.6746 124.281 36.0508C124.421 36.0796 124.557 36.0988 124.697 36.0988C124.837 36.0988 124.973 36.0796 125.113 36.0508C125.059 36.6746 125.04 37.8775 125.04 38.7348V40.4208C125.04 41.2781 125.059 42.481 125.113 43.1048C124.973 43.076 124.837 43.0568 124.697 43.0568C124.557 43.0568 124.421 43.076 124.281 43.1048C124.335 42.481 124.354 41.2781 124.354 40.4208V38.7348Z" fill="#231815"/>
<path d="M44.8443 26.2071C44.8443 27.6723 44.1553 28.0466 42.8789 28.0466H39.4563C37.9386 28.0466 37.4941 27.4548 37.4941 26.2071V15.0486C37.4941 13.6474 38.1006 13.1899 39.4563 13.1899H42.8789C44.3363 13.1899 44.8443 13.737 44.8443 15.0486V26.2071ZM42.7583 20.2216V15.183C42.7583 14.3736 42.5964 14.1976 41.8471 14.1976H40.4913C39.723 14.1976 39.5801 14.3736 39.5801 15.183V20.2216H42.7583ZM39.5801 20.9478V26.0535C39.5801 26.8853 39.742 27.0613 40.4913 27.0613H41.8471C42.5741 27.0613 42.7583 26.9077 42.7583 26.0535V20.9478H39.5801ZM52.5785 23.7694H48.7241C48.7241 27.6659 46.3937 29.8221 43.8124 31.7384C43.533 31.9463 42.0312 33.114 41.7963 32.3526C41.7074 32.0647 42.1201 31.6648 42.3551 31.5016C45.2094 29.4894 46.5461 28.2289 46.5461 23.4367V15.2022C46.5461 13.7146 47.1938 13.1451 48.6924 13.1451H52.6008C53.9374 13.1451 54.7471 13.5386 54.7471 15.2022V30.4939C54.7471 32.0263 53.9565 32.5062 52.6008 32.5062H50.1084C49.9465 32.5062 49.502 32.5062 49.502 32.0039C49.502 31.5016 49.9465 31.5016 50.1084 31.5016H51.5467C52.3976 31.5016 52.5785 31.2393 52.5785 30.3628V23.7694ZM52.5785 18.8907H48.7114V20.8454C48.7114 22.4865 48.7209 23.0432 48.7209 23.0432H52.5754V18.8907H52.5785ZM48.7114 18.1645H52.5785V15.1574C52.5785 14.3928 52.4357 14.1305 51.6483 14.1305H49.6448C48.8543 14.1305 48.7146 14.3704 48.7146 15.1574V18.1645H48.7114Z" fill="#231815"/>
<path d="M59.801 25.4169C59.801 24.6747 59.6804 24.4284 58.9501 24.4284H57.0547C56.8737 24.4284 56.4863 24.502 56.4863 24.0637C56.4863 23.6254 56.8705 23.5614 57.0547 23.5614H60.0836C61.4615 23.5614 61.9251 24.0605 61.9251 25.2186V28.1042C62.1283 30.1164 63.0998 31.1049 65.8145 31.1049H76.111C76.2919 31.1049 76.6761 31.1017 76.6761 31.5368C76.6761 31.9975 76.2919 31.9687 76.111 31.9687H65.5509C62.7347 31.9687 61.6235 31.6872 60.7535 30.0268C60.0645 30.8586 58.6485 32.4134 58.0008 32.4134C57.4325 32.4134 57.1309 31.8439 57.1309 31.2329C57.1309 30.7274 57.2928 30.4459 57.7976 30.206C58.8295 29.7261 59.1755 29.5502 59.801 29.1343V25.4137V25.4169ZM71.3199 15.4645C71.3199 16.0115 71.177 16.8657 70.2277 16.8657C69.3355 16.8657 69.1323 16.2323 69.1323 15.5317V14.9111H64.1127V15.4677C64.1127 15.7716 64.1127 16.8689 63.0395 16.8689C61.9664 16.8689 61.9664 15.8644 61.9664 15.4677V14.9111H57.115C56.934 14.9111 56.5498 14.9846 56.5498 14.5464C56.5498 14.0889 56.9531 14.1817 57.115 14.1817H61.9664C61.9664 13.5482 61.9664 12.3997 63.0173 12.3997C64.0682 12.3997 64.1095 13.5226 64.1095 14.1817H69.1292C69.1292 13.5706 69.1292 12.3997 70.2023 12.3997C71.2755 12.3997 71.3167 13.545 71.3167 14.1817H76.0475C76.2285 14.1817 76.6126 14.1081 76.6126 14.5464C76.6126 15.007 76.2285 14.9111 76.0475 14.9111H71.3167V15.4677L71.3199 15.4645ZM59.801 18.8172C59.0517 17.3136 58.5691 16.8689 58.0294 16.3027C57.9722 16.2515 57.896 16.1427 57.896 16.0371C57.896 15.826 58.1056 15.666 58.3183 15.666C58.6453 15.666 61.7663 17.5247 61.7663 18.5164C61.7663 19.0827 61.2075 19.4538 60.6678 19.4538C60.128 19.4538 59.9375 19.0987 59.801 18.8172ZM59.801 22.0675C59.0517 20.5639 58.5691 20.1192 58.0294 19.553C57.9722 19.5018 57.896 19.393 57.896 19.2874C57.896 19.0763 58.1056 18.9163 58.3183 18.9163C58.6453 18.9163 61.7663 20.775 61.7663 21.7635C61.7663 22.3298 61.2075 22.7009 60.6678 22.7009C60.128 22.7009 59.9375 22.3458 59.801 22.0643V22.0675ZM72.9646 17.6623C73.7551 17.6623 74.1203 17.9822 74.1203 18.4845C74.1203 18.9003 73.8567 19.1627 73.5329 19.425C72.6629 20.148 71.7708 20.5415 70.7198 21.0661C72.2788 21.8755 72.7709 22.1154 74.714 22.5761C75.0569 22.6593 75.495 22.7489 75.822 22.896C75.9713 22.9632 76.076 22.9952 76.1205 23.1552C76.1776 23.3759 75.9363 23.5806 75.7014 23.5806C75.4791 23.5806 74.3044 23.3407 73.3106 23.0976C71.1262 22.5537 69.9896 22.0259 69.4848 21.7859C66.1637 23.1648 63.3919 23.5071 63.2713 23.5071C63.0078 23.5071 62.8046 23.4047 62.8046 23.1424C62.8046 22.7489 63.1475 22.7073 63.3697 22.6657C65.6176 22.1186 67.2369 21.3701 68.0465 20.9542C67.4591 20.5383 66.8305 20.0808 66.1034 19.1819C65.1922 19.8377 64.0396 20.6023 63.7539 20.6023C63.5316 20.6023 63.3094 20.3847 63.3094 20.1C63.3094 19.8601 63.4523 19.6841 63.6142 19.5754C65.1541 18.3949 65.7795 17.432 66.5098 16.2259C66.6717 15.9412 66.894 15.6788 67.3797 15.6788C67.9449 15.6788 68.5545 16.0499 68.5545 16.6418C68.5545 16.9905 68.3322 17.3712 68.0497 17.6559H72.9677L72.9646 17.6623ZM70.415 25.82H73.5932C73.7964 25.82 74.1393 25.8136 74.1393 26.2519C74.1393 26.6902 73.7742 26.6614 73.5932 26.6614H70.415V27.8514H74.787C75.0093 27.8514 75.3521 27.8706 75.3521 28.2865C75.3521 28.7248 74.987 28.7184 74.787 28.7184H70.415V29.291C70.415 29.5982 70.415 30.7402 69.3609 30.7402C68.4497 30.7402 68.3068 29.9053 68.3068 29.291V28.7184H64.0365C63.8333 28.7184 63.4681 28.7248 63.4681 28.2865C63.4681 27.8483 63.8523 27.8514 64.0365 27.8514H68.3068V26.6614H65.2493C65.0461 26.6614 64.681 26.687 64.681 26.2519C64.681 25.7912 65.0652 25.82 65.2493 25.82H68.3068V24.7387H64.827C64.6238 24.7387 64.2587 24.7643 64.2587 24.3068C64.2587 23.8494 64.6429 23.8942 64.827 23.8942H68.3068C68.3068 23.5231 68.3259 22.4258 69.3609 22.4258C70.396 22.4258 70.415 23.5231 70.415 23.8942H73.9996C74.2028 23.8942 74.5648 23.8686 74.5648 24.3068C74.5648 24.7675 74.1806 24.7387 73.9996 24.7387H70.415V25.82ZM67.5385 18.3437C68.0433 18.9995 68.5704 19.6425 69.2181 20.148C69.7261 19.8409 71.104 18.9579 71.104 18.654C71.104 18.5005 71.0024 18.3469 70.7992 18.3469H67.5385V18.3437Z" fill="#231815"/>
<path d="M85.8231 16.7825C85.4389 16.7825 84.0228 15.6436 83.2323 14.6167C83.1529 14.508 83.0513 14.4184 82.9084 14.4184C82.7878 14.4184 82.7052 14.508 82.6036 14.6391C81.5305 16.0595 78.7365 18.4909 78.13 18.4909C77.8062 18.4909 77.6855 18.1837 77.6855 17.9854C77.6855 17.7455 77.8475 17.6367 78.0094 17.4831C79.8731 15.8644 80.6827 14.332 81.2066 13.3275C81.5495 12.6493 81.8353 12.3422 82.7655 12.3422C83.88 12.3422 84.0609 12.6269 84.5277 13.6794C84.8928 14.5112 85.3976 15.0774 86.1279 15.9316C86.1882 15.9987 86.2898 16.1299 86.2898 16.3251C86.2898 16.565 86.1088 16.7857 85.8231 16.7857V16.7825ZM78.9809 20.3271C78.9809 19.0571 79.5493 18.7372 80.8224 18.7372H81.5717V17.3712C81.5717 16.5618 82.0575 16.2771 82.502 16.2771C82.9465 16.2771 83.4736 16.5618 83.4736 17.3488V18.734H84.0609C85.4389 18.734 85.9024 19.1627 85.9024 20.3239V24.0221C85.9024 25.2922 85.3151 25.772 84.0609 25.772H80.9018V29.8637C81.994 29.5598 82.8671 29.2751 83.9593 28.8592C83.8165 28.3761 83.1497 26.7797 83.1497 26.6486C83.1497 26.4087 83.3529 26.1687 83.6164 26.1687C83.8006 26.1687 84.0419 26.4087 84.6293 27.154C85.277 27.9634 86.693 29.9309 86.693 30.6763C86.693 31.3097 86.1279 31.8567 85.4992 31.8567C85.1563 31.8567 84.8928 31.6584 84.7499 31.3321C84.6483 31.1145 84.3435 30.0396 84.2832 29.8221C81.2479 31.3545 78.8984 32.1862 78.6158 32.1862C78.2729 32.1862 77.8856 31.8343 77.8856 31.3097C77.8856 30.6763 78.2697 30.5643 78.9778 30.3915V20.3271H78.9809ZM84.0006 21.7348V20.3623C84.0006 19.6393 83.88 19.4666 83.1497 19.4666H81.7337C81.0256 19.4666 80.9018 19.6425 80.9018 20.3623V21.7348H84.0006ZM80.9018 22.4609V25.0458H83.1497C83.8768 25.0458 84.0006 24.8475 84.0006 24.1277V22.4609H80.9018ZM90.4173 14.9302V13.609C90.4173 12.4285 91.2682 12.339 91.5317 12.339C91.6524 12.339 92.6239 12.339 92.6239 13.609V14.9302H94.567C95.9227 14.9302 96.4085 15.3365 96.4085 16.5202V18.1166C96.4085 18.686 96.2466 19.3642 95.4369 19.3642C94.6876 19.3642 94.5067 18.7308 94.5067 18.139V16.4978C94.5067 15.7524 94.367 15.5797 93.678 15.5797H89.2648C88.5567 15.5797 88.4139 15.7556 88.4139 16.4978V18.1166C88.4139 18.3373 88.3948 18.5324 88.3345 18.75C88.579 18.51 88.9028 18.3117 89.7728 18.3117H92.789C94.0622 18.3117 94.6305 18.7724 94.6305 20.0392V22.0227C94.6305 23.1392 94.2051 23.7502 92.789 23.7502H89.976V25.4521H94.0876C95.3639 25.4521 95.91 25.9352 95.91 27.1828V30.4107C95.91 31.46 95.5862 32.1383 94.0876 32.1383H89.7759C88.5186 32.1383 87.9344 31.6776 87.9344 30.4107V20.0424C87.9344 19.6041 88.0138 19.3194 88.0551 19.1659C87.9344 19.2522 87.7725 19.3642 87.4677 19.3642C86.639 19.3642 86.5152 18.6412 86.5152 18.1166V16.5202C86.5152 15.4261 86.9184 14.9302 88.3567 14.9302H90.4236H90.4173ZM89.9728 23.024H91.7952C92.4842 23.024 92.6239 22.848 92.6239 22.1058V19.9337C92.6239 19.2107 92.5033 19.0155 91.7952 19.0155H90.8237C90.0934 19.0155 89.9728 19.2139 89.9728 19.9337V23.024ZM89.9728 26.1783V30.5131C89.9728 31.2553 90.1157 31.4313 90.8237 31.4313H93.0113C93.7193 31.4313 93.8622 31.2553 93.8622 30.5131V27.0965C93.8622 26.3319 93.7225 26.1783 93.0113 26.1783H89.976H89.9728Z" fill="#231815"/>
<path d="M106.527 14.7511V13.8074C106.527 13.062 106.75 12.3646 107.68 12.3646C108.61 12.3646 108.794 13.1515 108.794 13.8074V14.7511H116.586C116.767 14.7511 117.154 14.7479 117.154 15.183C117.154 15.6181 116.789 15.6181 116.586 15.6181H98.6374C98.4564 15.6181 98.0723 15.6436 98.0723 15.183C98.0723 14.7671 98.4374 14.7511 98.6374 14.7511H106.527ZM113.896 22.2466C115.395 22.2466 116.043 22.8161 116.043 24.326V30.4139C116.043 32.0327 115.151 32.4262 113.896 32.4262H111.893C111.731 32.4262 111.268 32.4966 111.268 31.9943C111.268 31.492 111.712 31.5624 111.893 31.5624H112.887C113.696 31.5624 113.836 31.3225 113.836 30.5355V24.1245C113.836 23.3599 113.696 23.0976 112.887 23.0976H102.397C101.587 23.0976 101.447 23.3599 101.447 24.1245V31.0506C101.447 31.4888 101.447 32.5829 100.374 32.5829C99.301 32.5829 99.2597 31.4888 99.2597 31.0506V24.3292C99.2597 22.6433 100.069 22.2498 101.384 22.2498H113.896V22.2466ZM112.63 19.473C112.63 20.7846 111.88 21.0693 110.909 21.0693H104.454C103.4 21.0693 102.714 20.743 102.714 19.473V18.5548C102.714 17.2208 103.524 16.9809 104.454 16.9809H110.909C111.941 16.9809 112.63 17.2848 112.63 18.5548V19.473ZM111.652 27.3268C111.652 28.5968 111.106 29.0543 109.81 29.0543H105.457C104.016 29.0543 103.613 28.4401 103.613 27.3268V26.0567C103.613 24.8763 104.098 24.3068 105.457 24.3068H109.81C111.309 24.3068 111.652 25.0074 111.652 26.0567V27.3268ZM110.483 18.2957C110.483 17.8574 110.404 17.7039 109.715 17.7039H105.651C104.981 17.7039 104.879 17.8574 104.879 18.2957V19.7289C104.879 20.1864 104.959 20.3399 105.651 20.3399H109.715C110.382 20.3399 110.483 20.164 110.483 19.7289V18.2957ZM109.547 25.8648C109.547 25.1866 109.426 25.033 108.778 25.033H106.489C105.819 25.033 105.721 25.209 105.721 25.8648V27.4963C105.721 28.1746 105.841 28.3281 106.489 28.3281H108.778C109.426 28.3281 109.547 28.1746 109.547 27.4963V25.8648Z" fill="#231815"/>
<path d="M122.519 15.4581C121.062 17.1888 119.544 18.3021 119.198 18.3021C118.957 18.3021 118.754 18.0622 118.754 17.8222C118.754 17.6687 118.814 17.5823 119.382 16.8817C120.598 15.3493 121.043 14.2136 121.427 13.2283C121.589 12.79 121.77 12.3326 122.44 12.3326C123.065 12.3326 123.735 12.8348 123.735 13.4043C123.735 13.7754 123.551 14.1529 123.31 14.524H127.177C127.38 14.524 127.742 14.5176 127.742 14.9558C127.742 15.3941 127.377 15.3877 127.177 15.3877H124.088C125.018 16.3059 125.697 16.9009 125.697 17.4288C125.697 18.0846 125.031 18.4781 124.504 18.4781C123.796 18.4781 123.634 17.9534 123.532 17.6047C123.31 16.8401 123.148 16.2483 122.783 15.4613H122.519V15.4581ZM129.158 22.4642H137.635C137.839 22.4642 138.204 22.4386 138.204 22.8768C138.204 23.3343 137.82 23.3087 137.635 23.3087H118.617C118.436 23.3087 118.049 23.3343 118.049 22.896C118.049 22.4354 118.433 22.461 118.617 22.461H127.012V20.0456H121.202C121.021 20.0456 120.633 20.0712 120.633 19.6137C120.633 19.1563 121.017 19.1787 121.202 19.1787H126.993C127.012 18.7628 127.012 17.6431 128.066 17.6431C129.12 17.6431 129.158 18.7628 129.158 19.1787H134.949C135.133 19.1787 135.518 19.1755 135.518 19.6137C135.518 20.0936 135.092 20.0456 134.949 20.0456H129.158V22.461V22.4642ZM131.771 23.5327C132.863 23.5327 132.882 23.8622 132.882 24.278V25.113H136.87C137.073 25.113 137.439 25.0874 137.439 25.5225C137.439 25.9832 137.054 25.9576 136.87 25.9576H132.882V30.6219C132.882 32.0231 132.114 32.3942 130.917 32.3942H128.041C127.901 32.3942 127.434 32.3942 127.434 31.8919C127.434 31.3897 127.879 31.3897 128.041 31.3897H129.641C130.492 31.3897 130.692 31.1497 130.692 30.2732V25.9576H119.376C119.192 25.9576 118.811 25.9832 118.811 25.5481C118.811 25.0874 119.195 25.113 119.376 25.113H130.692C130.692 25.113 130.692 23.5327 131.765 23.5327H131.771ZM124.726 31.2137C124.138 31.2137 123.935 30.8202 123.653 30.2284C123.145 29.2015 122.903 28.8048 122.256 27.9314C122.176 27.8003 122.116 27.7139 122.116 27.5603C122.116 27.298 122.338 27.0581 122.583 27.0581C122.764 27.0581 123.332 27.4292 123.573 27.5827C124.85 28.3921 125.964 29.1151 125.964 29.9245C125.964 30.6027 125.335 31.2169 124.729 31.2169L124.726 31.2137ZM130.619 15.3909C130.05 16.0019 128.574 17.5183 128.126 17.5183C127.885 17.5183 127.663 17.2784 127.663 17.0161C127.663 16.8849 127.783 16.6866 128.19 16.0979C128.857 15.135 129.101 14.4792 129.545 13.1451C129.726 12.5757 130.009 12.3358 130.558 12.3358C131.063 12.3358 131.835 12.7293 131.835 13.4075C131.835 13.7338 131.733 14.0665 131.387 14.5272H136.835C137.038 14.5272 137.4 14.5208 137.4 14.959C137.4 15.3973 137.038 15.3909 136.835 15.3909H132.978C133.908 16.1587 134.772 16.8177 134.772 17.432C134.772 18.0878 134.124 18.4813 133.578 18.4813C132.87 18.4813 132.708 18.0654 132.606 17.7583C132.12 16.469 131.917 15.874 131.676 15.3909H130.625H130.619Z" fill="#231815"/>
<path d="M148.003 24.582C148.003 24.0349 148.003 23.1168 149.137 23.1168C149.521 23.1168 149.702 23.2671 149.864 23.3567C150.248 22.9856 151.464 21.8243 151.464 21.5204C151.464 21.3253 151.302 21.1429 151.099 21.1429H143.85C143.666 21.1429 143.282 21.1685 143.282 20.711C143.282 20.2536 143.647 20.2792 143.85 20.2792H153.324C154.134 20.2792 154.62 20.4711 154.62 21.1493C154.62 21.4788 154.496 21.7188 154.112 22.0227C153.343 22.6369 151.683 23.7086 150.245 24.5404V24.8731H158.7C158.862 24.8731 159.268 24.8475 159.268 25.305C159.268 25.7624 158.903 25.7368 158.7 25.7368H150.245V30.4235C150.245 31.9335 149.435 32.439 148.098 32.439H145.346C145.184 32.439 144.717 32.5094 144.717 32.0039C144.717 31.4984 145.184 31.572 145.346 31.572H146.946C147.797 31.572 148 31.3097 148 30.4331V25.74H139.624C139.44 25.74 139.078 25.7432 139.078 25.3082C139.097 24.8475 139.462 24.8763 139.624 24.8763H148V24.5884L148.003 24.582ZM156.099 16.9521C157.617 16.9521 158.084 17.4959 158.084 18.7404V19.9433C158.084 20.292 158.084 21.3637 157.014 21.3637C155.944 21.3637 155.941 20.292 155.941 19.9433V18.7052C155.941 17.8958 155.779 17.6783 154.988 17.6783H143.364C142.596 17.6783 142.412 17.8958 142.412 18.7052V19.9433C142.412 20.2696 142.412 21.3637 141.361 21.3637C140.31 21.3637 140.269 20.3143 140.269 19.9433V18.7404C140.269 17.3168 140.935 16.9521 142.253 16.9521H152.781C152.578 16.8881 152.439 16.6194 152.439 16.4434C152.439 16.2899 153.127 15.087 153.248 14.8247C153.369 14.5623 153.794 13.4235 153.956 13.1419C154.178 12.7485 154.585 12.6365 154.826 12.6365C155.391 12.6365 156.102 13.0748 156.102 13.7754C156.102 14.8023 153.47 16.7985 153.064 16.9521H156.102H156.099ZM144.336 16.7281C143.726 16.7281 143.625 16.4882 143.139 15.3941C142.834 14.6935 142.533 14.1465 142.107 13.513C142.028 13.3819 141.986 13.2923 141.986 13.1835C141.986 12.9212 142.209 12.6813 142.472 12.6813C142.796 12.6813 145.609 14.5176 145.609 15.5701C145.609 16.1843 145.044 16.7281 144.336 16.7281ZM149.092 16.4882C148.422 16.4882 148.282 16.0499 148.041 15.3269C147.819 14.6711 147.555 14.0793 147.27 13.4906C147.168 13.2731 146.946 12.8796 146.946 12.7676C146.946 12.5053 147.19 12.2654 147.432 12.2654C147.778 12.2654 150.327 14.2776 150.327 15.3493C150.327 16.0051 149.698 16.485 149.092 16.485V16.4882Z" fill="#231815"/>
<path d="M166.373 31.1977C166.373 31.5464 166.373 32.5765 165.341 32.5765C164.309 32.5765 164.29 31.5688 164.29 31.1977V23.3855C163.277 25.6377 161.842 27.8067 161.353 27.8067C161.089 27.8067 160.889 27.5859 160.889 27.3236C160.889 27.1924 160.931 27.1061 161.112 26.8213C161.477 26.2743 163.42 23.0752 164.188 18.0654H161.016C160.835 18.0654 160.451 18.0238 160.451 17.5855C160.451 17.1248 160.835 17.2208 161.016 17.2208H164.29V13.737C164.29 13.3851 164.29 12.3358 165.322 12.3358C166.353 12.3358 166.376 13.3627 166.376 13.737V17.2208H167.897C168.1 17.2208 168.462 17.1952 168.462 17.6527C168.462 18.1102 168.078 18.0654 167.897 18.0654H166.42C166.722 20.0776 167.452 22.0291 168.747 24.2173C168.932 24.5244 168.951 24.6331 168.951 24.6971C168.951 25.0042 168.728 25.1994 168.487 25.1994C168.043 25.1994 166.868 23.2959 166.379 22.4418V31.1945L166.373 31.1977ZM175.078 22.6433C175.24 21.8787 175.523 21.5492 176.11 21.5492C176.618 21.5492 177.406 21.9427 177.406 22.7297C177.406 23.2991 176.701 25.4649 174.78 27.8483C176.177 29.5118 177.628 30.4523 179.654 31.4345C179.917 31.5656 179.996 31.7192 179.996 31.8951C179.996 32.2022 179.774 32.3974 179.552 32.3974C179.39 32.3974 176.475 31.54 173.783 28.9359C171.272 31.2777 167.995 32.4646 167.668 32.4646C167.427 32.4646 167.223 32.2246 167.223 31.9591C167.223 31.7608 167.344 31.588 167.566 31.4984C169.449 30.6891 171.57 29.2463 172.764 27.8451C170.9 25.5929 169.935 23.3599 169.935 22.6369C169.935 22.0259 170.481 21.498 171.11 21.498C171.795 21.498 171.999 21.9139 172.142 22.4386C172.446 23.619 172.688 24.6523 173.742 26.4023C174.612 24.9371 174.913 23.4655 175.078 22.6337V22.6433ZM168.154 21.8339C168.154 21.6804 168.233 21.5492 168.417 21.3541C169.147 20.5671 169.675 19.7577 170.281 18.5548C170.767 17.5695 170.849 17.3744 171.456 17.3744C171.983 17.3744 172.589 17.7679 172.589 18.4237C172.589 19.4954 169.005 22.3394 168.62 22.3394C168.316 22.3394 168.157 22.0771 168.157 21.8371L168.154 21.8339ZM172.729 15.826V13.673C172.729 13.4107 172.729 12.3614 173.824 12.3614C174.92 12.3614 174.897 13.4331 174.897 13.673V15.826H179.269C179.431 15.826 179.838 15.8004 179.838 16.2611C179.838 16.7217 179.454 16.6706 179.269 16.6706H168.963C168.801 16.6706 168.398 16.7185 168.398 16.2355C168.398 15.7524 168.801 15.8228 168.963 15.8228H172.729V15.826ZM178.641 22.1186C178.215 22.1186 178.136 21.9875 177.466 20.9158C176.596 19.5146 175.704 18.5964 175.44 18.3341C175.32 18.2029 175.199 18.0494 175.199 17.8958C175.199 17.6335 175.399 17.3936 175.663 17.3936C175.926 17.3936 177.202 18.3117 177.809 18.7724C178.701 19.473 179.692 20.3048 179.692 20.9382C179.692 21.5716 179.184 22.1186 178.638 22.1186H178.641Z" fill="#231815"/>
<path d="M23.3463 29.6589C23.3463 33.6322 20.1491 36.8537 16.2089 36.8537C12.2688 36.8537 9.06836 33.6322 9.06836 29.6589C9.06836 25.6857 12.2624 22.4641 16.2089 22.4641C20.1554 22.4641 23.3463 25.6857 23.3463 29.6589Z" fill="#231815"/>
<path d="M16.2369 13.3307C16.383 12.7836 16.5957 12.2174 16.8815 11.616L17.2085 10.9442C17.7863 9.78608 18.4372 8.47444 18.4435 7.1756C18.4499 6.29905 18.0308 5.61124 17.6625 5.00981C17.4561 4.6675 17.2625 4.34439 17.1418 4.00848C18.0276 4.85945 19.4945 5.96314 21.1836 5.96314C23.9045 5.96314 26.1143 4.62591 26.1143 2.98157C26.1143 1.33723 23.9014 0 21.1804 0C19.1547 0 17.4403 1.59316 16.6814 2.43132C15.9226 1.59316 14.2113 0 12.1856 0C9.46466 0 7.25169 1.34043 7.25169 2.98157C7.25169 4.62271 9.46466 5.96314 12.1856 5.96314C13.8144 5.96314 15.2368 4.93303 16.1322 4.09486C16.2782 4.64191 16.5608 5.10258 16.8211 5.53126C17.1609 6.09111 17.4593 6.57417 17.453 7.1692C17.4466 8.23451 16.8497 9.43737 16.3195 10.4995L15.9829 11.1873C15.6273 11.9455 15.3702 12.6653 15.2114 13.3627C6.74052 13.8841 0 20.9958 0 29.6653C0 38.3349 7.27392 45.9968 16.2115 45.9968C25.1491 45.9968 32.4231 38.6676 32.4231 29.6653C32.4231 20.6631 25.1618 13.3435 16.2338 13.3307H16.2369ZM16.2115 36.8441C12.2841 36.8441 9.08366 33.6226 9.08366 29.6653C9.08366 25.708 12.2841 22.4833 16.2115 22.4833C20.139 22.4833 23.3362 25.7048 23.3362 29.6653C23.3362 33.6258 20.139 36.8441 16.2115 36.8441ZM23.6728 38.5205C22.5202 38.5205 21.59 37.5799 21.59 36.4251C21.59 35.2702 22.5202 34.3296 23.6728 34.3296C24.8253 34.3296 25.7492 35.267 25.7492 36.4251C25.7492 37.5831 24.8221 38.5205 23.6728 38.5205Z" fill="url(#paint0_radial_534_3582)"/>
<path d="M14.2559 31.5848L14.3003 31.604C15.1163 31.9431 16.0783 32.0167 17.0118 32.0903L17.7992 32.1575L17.7738 32.0583L16.1799 26.3831L16.1132 26.6102C15.7767 27.7011 15.4084 28.8464 14.8972 29.8893L14.7067 30.254C14.4876 30.6539 14.2876 31.0346 14.259 31.5368V31.5848H14.2559Z" fill="#231815"/>
<path d="M13.3311 33.7058C14.2931 34.5792 16.6458 35.4301 17.7951 34.7679C18.011 34.6464 18.1507 34.4576 18.2809 34.2689C18.4111 34.0961 18.5317 33.9298 18.7191 33.8146L18.9223 33.6898L13.1914 33.5779L13.3311 33.7058Z" fill="#231815"/>
<path d="M13.7986 27.394L14.024 27.378L14.17 27.1189C14.17 27.1189 14.1065 27.1476 14.097 27.1572L14.532 26.7734C14.5796 26.735 14.5733 26.6934 14.5542 26.639C14.3129 25.9896 13.8271 25.5449 13.316 25.5065C12.9985 25.4809 12.7254 25.6345 12.5476 25.9096C12.3158 25.9928 12.0999 26.1559 11.9094 26.4055C11.8936 26.431 11.8809 26.4598 11.8809 26.4886C11.8809 26.5014 11.884 26.5174 11.8872 26.5302C12.1634 27.4036 12.9635 27.5827 13.6366 27.3716C13.6906 27.3972 13.8017 27.394 13.8017 27.394H13.7986Z" fill="#231815"/>
<path d="M20.4379 27.2532V27.234C20.4283 26.9685 20.2251 26.607 19.679 26.4982C19.1075 26.3831 18.844 26.6582 18.79 26.9269C18.7805 26.9717 18.7773 27.0101 18.7773 27.0549C18.7773 27.3172 18.971 27.5667 19.2504 27.7331C19.2377 27.7491 19.206 27.7491 19.2028 27.7779C19.2028 27.8419 19.2441 27.893 19.3044 27.8962H19.3298H19.3552C19.4346 27.8994 19.7648 27.9154 19.7648 27.9154L19.9902 27.8962H20.0156C20.0759 27.8898 20.114 27.8419 20.114 27.7811V27.7747C20.114 27.7747 20.1077 27.7747 20.1045 27.7683C20.2982 27.6467 20.4442 27.474 20.4442 27.25L20.4379 27.2532Z" fill="#231815"/>
<path d="M25.7452 36.4411C25.7452 37.5991 24.8149 38.5397 23.6656 38.5397C22.5162 38.5397 21.5859 37.6023 21.5859 36.4411C21.5859 35.2798 22.5194 34.3488 23.6656 34.3488C24.8117 34.3488 25.7452 35.2862 25.7452 36.4411Z" fill="#231815"/>
</g>
<defs>
<radialGradient id="paint0_radial_534_3582" cx="0" cy="0" r="1" gradientUnits="userSpaceOnUse" gradientTransform="translate(5.51179 23.3247) scale(28.4956 28.712)">
<stop stop-color="#AACE36"/>
<stop offset="0.5" stop-color="#18943B"/>
<stop offset="1" stop-color="#128132"/>
</radialGradient>
<clipPath id="clip0_534_3582">
<rect width="180" height="46" fill="#231815"/>
</clipPath>
</defs>
</svg>
